<svg width="24" height="24" viewBox="0 0 24 24" fill="none" xmlns="http://www.w3.org/2000/svg">
<path d="M8.66667 10H2V6C2 5.44772 2.44772 5 3 5H21C21.5523 5 22 5.44772 22 6V10H15.3333" stroke="#707070"/>
<rect x="9" y="8" width="6" height="4" rx="1" stroke="#707070"/>
<path d="M4.22222 10H2V18C2 18.5523 2.44772 19 3 19H4.22222M4.22222 10V19M4.22222 10H6.44444M4.22222 19H6.44444M6.44444 10H8.66667V19M6.44444 10V19M6.44444 19H8.66667M8.66667 19H10.8889M10.8889 12.25V19M10.8889 19H13.1111M13.1111 12.25V19M13.1111 19H15.3333M15.3333 19V10H17.5556M15.3333 19H17.5556M17.5556 19V10M17.5556 19H19.7778M17.5556 10H19.7778M19.7778 19H21C21.5523 19 22 18.5523 22 18V10H19.7778M19.7778 19V10" stroke="#707070"/>
</svg>
