<svg width="1em" height="1em" viewBox="0 0 48 48" fill="none" xmlns="http://www.w3.org/2000/svg"><path d="M8.44446 9.55556C8.44446 6.48731 10.9318 4 14 4H34C37.0683 4 39.5556 6.48731 39.5556 9.55556V9.55556C39.5556 12.6238 37.0683 15.1111 34 15.1111H14C10.9318 15.1111 8.44446 12.6238 8.44446 9.55556V9.55556Z" fill="#aaaaaa"></path><path fill-rule="evenodd" clip-rule="evenodd" d="M34 9H14C13.6932 9 13.4445 9.24873 13.4445 9.55556C13.4445 9.86237 13.6932 10.1111 14 10.1111H34C34.3068 10.1111 34.5556 9.86238 34.5556 9.55556C34.5556 9.24874 34.3068 9 34 9ZM14 4C10.9318 4 8.44446 6.48731 8.44446 9.55556C8.44446 12.6238 10.9318 15.1111 14 15.1111H34C37.0683 15.1111 39.5556 12.6238 39.5556 9.55556C39.5556 6.48731 37.0683 4 34 4H14Z" fill="#aaaaaa"></path><path fill-rule="evenodd" clip-rule="evenodd" d="M34.7388 13H13.2613L16.445 40L31.5551 40L34.7388 13ZM13.2613 9C10.8665 9 9.00842 11.0901 9.28885 13.4684L12.4725 40.4684C12.71 42.4824 14.417 44 16.445 44H31.5551C33.583 44 35.2901 42.4824 35.5275 40.4684L38.7113 13.4684C38.9917 11.0901 37.1336 9 34.7388 9H13.2613Z" fill="#aaaaaa"></path><path d="M6.22223 11.4445C6.22223 9.7876 7.56537 8.44446 9.22223 8.44446H38.7778C40.4346 8.44446 41.7778 9.7876 41.7778 11.4445V12.1111C41.7778 13.768 40.4346 15.1111 38.7778 15.1111H9.22223C7.56538 15.1111 6.22223 13.768 6.22223 12.1111V11.4445Z" fill="#aaaaaa"></path><path fill-rule="evenodd" clip-rule="evenodd" d="M9.22223 8.44446C7.56537 8.44446 6.22223 9.7876 6.22223 11.4445V12.1111C6.22223 13.768 7.56538 15.1111 9.22223 15.1111H38.7778C40.4346 15.1111 41.7778 13.768 41.7778 12.1111V11.4445C41.7778 9.7876 40.4346 8.44446 38.7778 8.44446H9.22223Z" fill="#aaaaaa"></path><path d="M12.2207 20.6996C12.1025 19.522 13.0272 18.5 14.2107 18.5H33.6765C34.8997 18.5 35.8363 19.5881 35.6543 20.7976L34.0743 31.2976C33.9271 32.2762 33.0863 33 32.0966 33H15.264C14.2367 33 13.3765 32.2218 13.2739 31.1996L12.2207 20.6996Z" fill="#aaaaaa"></path></svg>