<svg width="64" height="39" viewBox="0 0 64 39" fill="none" xmlns="http://www.w3.org/2000/svg" stroke="rgba(0,0,0,.64)" stroke-width="0.5" >
<path d="M38.6826 35.7026C38.2668 35.8946 37.7869 35.8626 37.4031 35.6707" stroke-linecap="round" stroke-linejoin="round"/>
<path d="M62.8339 23.8349L27.4866 1.34695" stroke-linecap="round" stroke-linejoin="round"/>
<path d="M61.4903 24.6346L26.4949 2.37057" stroke-linecap="round" stroke-linejoin="round"/>
<path d="M20.7041 26.6819C20.4166 26.8416 20.193 27.0972 20.0972 27.3847" stroke-linecap="round" stroke-linejoin="round"/>
<path d="M15.8428 24.666C15.8428 24.4743 15.9386 24.3146 16.0983 24.2507" stroke-linecap="round" stroke-linejoin="round"/>
<path d="M14.9472 23.0352C14.5313 23.2591 14.2754 23.675 14.2434 24.1228" stroke-linecap="round" stroke-linejoin="round"/>
<path d="M37.4029 35.6706L2.40747 13.4066" stroke-linecap="round" stroke-linejoin="round"/>
<path d="M16.3545 24.73C16.3545 24.73 16.3545 24.73 16.3545 24.6663C16.3545 24.6663 16.3545 24.6026 16.3864 24.6026" stroke-linecap="round" stroke-linejoin="round"/>
<path d="M37.4349 35.7024C37.4525 35.7024 37.4668 35.6881 37.4668 35.6705C37.4668 35.6529 37.4525 35.6386 37.4349 35.6386C37.4173 35.6386 37.4031 35.6529 37.4031 35.6705C37.4031 35.6881 37.4173 35.7024 37.4349 35.7024Z" fill="black"/>
<path d="M61.8419 24.7306C61.8419 24.7306 61.7782 24.7624 61.7463 24.7943" stroke-linecap="round" stroke-linejoin="round"/>
<path d="M63.2176 24.4427C63.2176 24.6024 63.1537 24.7302 63.0579 24.826" stroke-linecap="round" stroke-linejoin="round"/>
<path d="M63.2178 24.4427V25.9781" stroke-linecap="round" stroke-linejoin="round"/>
<path d="M39.1943 36.2464L62.6419 25.1144" stroke-linecap="round" stroke-linejoin="round"/>
<path d="M61.7463 24.7946L38.7146 35.7026" stroke-linecap="round" stroke-linejoin="round"/>
<path d="M61.8423 24.0908C62.034 24.1547 62.0978 24.3783 62.034 24.5381C62.002 24.6339 61.9381 24.6978 61.8423 24.7297" stroke-linecap="round" stroke-linejoin="round"/>
<path d="M2.79129 13.2467C2.69532 13.2467 2.63135 13.3426 2.63135 13.4706C2.63135 13.5346 2.66333 13.5666 2.72731 13.5985" stroke-linecap="round" stroke-linejoin="round"/>
<path d="M2.75935 13.6305L2.40747 13.4066" stroke-linecap="round" stroke-linejoin="round"/>
<path d="M61.8421 24.0908L26.8467 1.82678" stroke-linecap="round" stroke-linejoin="round"/>
<path d="M15.8428 24.7625V24.7944" stroke-linecap="round" stroke-linejoin="round"/>
<path d="M15.427 25.6262V24.8585" stroke-linecap="round" stroke-linejoin="round"/>
<path d="M15.427 24.8901C15.427 24.8901 15.427 24.8583 15.427 24.8264C15.427 24.8264 15.427 24.8264 15.427 24.7946" stroke-linecap="round" stroke-linejoin="round"/>
<path d="M15.459 24.6983C15.459 24.6983 15.459 24.6664 15.459 24.6346" stroke-linecap="round" stroke-linejoin="round"/>
<path d="M15.5229 24.4737C15.6188 24.1862 15.8424 23.9307 16.1299 23.7709" stroke-linecap="round" stroke-linejoin="round"/>
<path d="M21.1848 28.5372C21.1848 28.0894 21.4727 27.6735 21.8886 27.4496" stroke-linecap="round" stroke-linejoin="round"/>
<path d="M1.41577 13.6625L15.6187 22.6833" stroke-linecap="round" stroke-linejoin="round"/>
<path d="M37.4029 35.7024C37.4205 35.7024 37.4348 35.6881 37.4348 35.6705C37.4348 35.6529 37.4205 35.6386 37.4029 35.6386C37.3854 35.6386 37.3711 35.6529 37.3711 35.6705C37.3711 35.6881 37.3854 35.7024 37.4029 35.7024Z" fill="black"/>
<path d="M21.1848 29.305V28.5372" stroke-linecap="round" stroke-linejoin="round"/>
<path d="M61.5862 24.8576C61.618 24.762 61.5862 24.6664 61.5225 24.6346" stroke-linecap="round" stroke-linejoin="round"/>
<path d="M2.40729 13.4057C2.21561 13.3098 2.15172 13.1182 2.21561 12.9265C2.2795 12.7987 2.37535 12.7348 2.50313 12.7029" stroke-linecap="round" stroke-linejoin="round"/>
<path d="M2.75916 13.6303C2.77675 13.6303 2.79102 13.616 2.79102 13.5984C2.79102 13.5808 2.77675 13.5666 2.75916 13.5666C2.74156 13.5666 2.72729 13.5808 2.72729 13.5984C2.72729 13.616 2.74156 13.6303 2.75916 13.6303Z" fill="black"/>
<path d="M56.6599 19.9003C56.7239 19.8043 56.8518 19.7723 56.9478 19.8363" stroke-linecap="round" stroke-linejoin="round"/>
<path d="M38.1707 8.12854L39.0023 8.35246" stroke-linecap="round" stroke-linejoin="round"/>
<path d="M34.9077 6.04929L35.7394 6.27321" stroke-linecap="round" stroke-linejoin="round"/>
<path d="M55.8604 19.3885L56.6921 19.6124" stroke-linecap="round" stroke-linejoin="round"/>
<path d="M38.9385 8.64035C39.0025 8.54438 39.1304 8.5124 39.2264 8.57638" stroke-linecap="round" stroke-linejoin="round"/>
<path d="M2.5033 13.4703C2.52089 13.4703 2.53515 13.4561 2.53515 13.4385C2.53515 13.4209 2.52089 13.4066 2.5033 13.4066C2.4857 13.4066 2.47144 13.4209 2.47144 13.4385C2.47144 13.4561 2.4857 13.4703 2.5033 13.4703Z" fill="black"/>
<path d="M15.9067 24.8585L16.3859 25.178" stroke-linecap="round" stroke-linejoin="round"/>
<path d="M16.3225 24.2507C16.3544 24.2826 16.3862 24.3463 16.3862 24.41" stroke-linecap="round" stroke-linejoin="round"/>
<path d="M16.354 24.7302L15.9067 24.4427" stroke-linecap="round" stroke-linejoin="round"/>
<path d="M16.3867 24.7306C16.3867 24.7306 16.3867 24.7306 16.3867 24.7624" stroke-linecap="round" stroke-linejoin="round"/>
<path d="M39.0984 8.41644C39.1621 8.4483 39.194 8.51202 39.2258 8.57574" stroke-linecap="round" stroke-linejoin="round"/>
<path d="M35.8353 6.33704C35.8353 6.33704 35.7716 6.30518 35.7397 6.30518" stroke-linecap="round" stroke-linejoin="round"/>
<path d="M35.8354 6.33716L39.0983 8.41641" stroke-linecap="round" stroke-linejoin="round"/>
<path d="M56.7878 19.6764C56.8516 19.7083 56.8834 19.772 56.9153 19.8357" stroke-linecap="round" stroke-linejoin="round"/>
<path d="M53.5248 17.597C53.5248 17.597 53.4611 17.5652 53.4292 17.5652" stroke-linecap="round" stroke-linejoin="round"/>
<path d="M53.5251 17.5971L56.788 19.6764" stroke-linecap="round" stroke-linejoin="round"/>
<path d="M1 13.0547C1 13.3103 1.19167 13.5339 1.41529 13.6617" stroke-linecap="round" stroke-linejoin="round"/>
<path d="M1 14.5902C1 14.8458 1.19167 15.0694 1.41529 15.1972" stroke-linecap="round" stroke-linejoin="round"/>
<path d="M1 14.5902V13.0547" stroke-linecap="round" stroke-linejoin="round"/>
<path d="M25.1194 1.21882C25.2152 1.18688 25.2791 1.15493 25.375 1.12298C25.4069 1.12298 25.4708 1.12298 25.5027 1.09103C25.5347 1.09103 25.5986 1.09103 25.6305 1.09103" stroke-linecap="round" stroke-linejoin="round"/>
<path d="M25.5352 1.7628C25.951 1.57087 26.4308 1.60287 26.8147 1.82678" stroke-linecap="round" stroke-linejoin="round"/>
<path d="M25.535 1.79453C25.5526 1.79453 25.5669 1.78026 25.5669 1.76267C25.5669 1.74507 25.5526 1.7308 25.535 1.7308C25.5174 1.7308 25.5032 1.74507 25.5032 1.76267C25.5032 1.78026 25.5174 1.79453 25.535 1.79453Z" fill="black"/>
<path d="M2.50342 12.6709L25.5352 1.76279" stroke-linecap="round" stroke-linejoin="round"/>
<path d="M2.5033 12.7026C2.52089 12.7026 2.53515 12.6884 2.53515 12.6708C2.53515 12.6532 2.52089 12.6389 2.5033 12.6389C2.4857 12.6389 2.47144 12.6532 2.47144 12.6708C2.47144 12.6884 2.4857 12.7026 2.5033 12.7026Z" fill="black"/>
<path d="M1.19189 12.6389C1.19189 12.6389 1.1919 12.6389 1.22389 12.6069C1.22389 12.6069 1.28786 12.5749 1.28786 12.5429C1.35183 12.5109 1.41581 12.447 1.47979 12.415" stroke-linecap="round" stroke-linejoin="round"/>
<path d="M1.60767 12.351L25.0553 1.21899" stroke-linecap="round" stroke-linejoin="round"/>
<path d="M25.0553 1.25073C25.0729 1.25073 25.0872 1.23647 25.0872 1.21887C25.0872 1.20128 25.0729 1.18701 25.0553 1.18701C25.0377 1.18701 25.0234 1.20128 25.0234 1.21887C25.0234 1.23647 25.0377 1.25073 25.0553 1.25073Z" fill="black"/>
<path d="M39.1618 36.2784C39.0659 36.3104 39.002 36.3423 38.9062 36.3743C38.8743 36.3743 38.8104 36.3743 38.7784 36.4062C38.7784 36.4062 38.7465 36.4062 38.7145 36.4062C38.7145 36.4062 38.6826 36.4062 38.6506 36.4062" stroke-linecap="round" stroke-linejoin="round"/>
<path d="M63.0259 24.8585C63.0259 24.8585 63.0259 24.8585 62.994 24.8905C62.994 24.8905 62.994 24.8905 62.962 24.9225C62.962 24.9225 62.898 24.9545 62.866 24.9865C62.802 25.0185 62.738 25.0824 62.6741 25.1144" stroke-linecap="round" stroke-linejoin="round"/>
<path d="M25.6631 1.05906C26.2709 0.931105 26.9106 1.05906 27.4544 1.34695" stroke-linecap="round" stroke-linejoin="round"/>
<path d="M62.834 23.8349C63.0576 23.9627 63.2173 24.1863 63.2493 24.4419" stroke-linecap="round" stroke-linejoin="round"/>
<path d="M2.75928 13.6306L37.4668 35.7026" stroke-linecap="round" stroke-linejoin="round"/>
<path d="M2.82312 13.2784C2.84072 13.2784 2.85497 13.2641 2.85497 13.2465C2.85497 13.2289 2.84072 13.2147 2.82312 13.2147C2.80553 13.2147 2.79126 13.2289 2.79126 13.2465C2.79126 13.2641 2.80553 13.2784 2.82312 13.2784Z" fill="black"/>
<path d="M25.823 2.33859L2.79126 13.2467" stroke-linecap="round" stroke-linejoin="round"/>
<path d="M25.8229 2.37032C25.8405 2.37032 25.8547 2.35607 25.8547 2.33847C25.8547 2.32088 25.8405 2.30661 25.8229 2.30661C25.8053 2.30661 25.791 2.32088 25.791 2.33847C25.791 2.35607 25.8053 2.37032 25.8229 2.37032Z" fill="black"/>
<path d="M2.75916 13.6303C2.77675 13.6303 2.79102 13.616 2.79102 13.5984C2.79102 13.5808 2.77675 13.5666 2.75916 13.5666C2.74156 13.5666 2.72729 13.5808 2.72729 13.5984C2.72729 13.616 2.74156 13.6303 2.75916 13.6303Z" fill="black"/>
<path d="M26.8143 1.82678L26.4629 2.36985" stroke-linecap="round" stroke-linejoin="round"/>
<path d="M22.5923 27.1297V28.6652" stroke-linecap="round" stroke-linejoin="round"/>
<path d="M20.0012 27.7691C20.0012 27.7691 20.0012 27.7372 20.0012 27.7054C20.0012 27.7054 20.0012 27.7054 20.0012 27.6735" stroke-linecap="round" stroke-linejoin="round"/>
<path d="M20.0012 27.7695V28.5372" stroke-linecap="round" stroke-linejoin="round"/>
<path d="M20.0651 27.4493C20.0827 27.4493 20.0969 27.4351 20.0969 27.4175C20.0969 27.3999 20.0827 27.3856 20.0651 27.3856C20.0475 27.3856 20.0332 27.3999 20.0332 27.4175C20.0332 27.4351 20.0475 27.4493 20.0651 27.4493Z" fill="black"/>
<path d="M16.3864 24.5067C16.3864 24.5067 16.3864 24.5704 16.3545 24.6022" stroke-linecap="round" stroke-linejoin="round"/>
<path d="M16.3864 24.4424C16.404 24.4424 16.4182 24.4282 16.4182 24.4106C16.4182 24.393 16.404 24.3787 16.3864 24.3787C16.3688 24.3787 16.3545 24.393 16.3545 24.4106C16.3545 24.4282 16.3688 24.4424 16.3864 24.4424Z" fill="black"/>
<path d="M16.1306 24.2507C16.1943 24.2507 16.2581 24.2507 16.3218 24.2507" stroke-linecap="round" stroke-linejoin="round"/>
<path d="M16.1305 24.2825C16.1481 24.2825 16.1623 24.2682 16.1623 24.2506C16.1623 24.233 16.1481 24.2188 16.1305 24.2188C16.1129 24.2188 16.0986 24.233 16.0986 24.2506C16.0986 24.2682 16.1129 24.2825 16.1305 24.2825Z" fill="black"/>
<path d="M15.8428 25.0501C15.8428 25.0501 15.8428 24.9863 15.8746 24.9545" stroke-linecap="round" stroke-linejoin="round"/>
<path d="M15.4908 24.5384C15.5084 24.5384 15.5227 24.5241 15.5227 24.5065C15.5227 24.4889 15.5084 24.4747 15.4908 24.4747C15.4732 24.4747 15.459 24.4889 15.459 24.5065C15.459 24.5241 15.4732 24.5384 15.4908 24.5384Z" fill="black"/>
<path d="M16.8025 23.451V24.9865" stroke-linecap="round" stroke-linejoin="round"/>
<path d="M56.6919 19.6124C56.7238 19.6124 56.7556 19.6124 56.7875 19.6443" stroke-linecap="round" stroke-linejoin="round"/>
<path d="M56.9469 19.8363L56.7239 19.9319" stroke-linecap="round" stroke-linejoin="round"/>
<path d="M56.9478 19.8363C56.9478 19.8363 56.9478 19.8683 56.9478 19.9003C56.9478 19.9323 56.9478 19.9643 56.9478 19.9963C56.9478 20.0283 56.9478 20.0603 56.9478 20.1242" stroke-linecap="round" stroke-linejoin="round"/>
<path d="M53.6846 17.7564C53.6527 17.6927 53.589 17.629 53.5571 17.5971" stroke-linecap="round" stroke-linejoin="round"/>
<path d="M53.4291 17.5652L52.5974 17.3412" stroke-linecap="round" stroke-linejoin="round"/>
<path d="M39.0024 8.35245C39.0343 8.35245 39.0662 8.35245 39.098 8.38431" stroke-linecap="round" stroke-linejoin="round"/>
<path d="M39.2574 8.57639L39.0344 8.67196" stroke-linecap="round" stroke-linejoin="round"/>
<path d="M39.2583 8.57639C39.2583 8.57639 39.2583 8.60837 39.2583 8.64036C39.2583 8.67235 39.2583 8.70434 39.2583 8.73633C39.2583 8.76832 39.2583 8.8003 39.2583 8.86428" stroke-linecap="round" stroke-linejoin="round"/>
<path d="M61.7462 24.8263C61.7638 24.8263 61.7781 24.812 61.7781 24.7944C61.7781 24.7768 61.7638 24.7625 61.7462 24.7625C61.7286 24.7625 61.7144 24.7768 61.7144 24.7944C61.7144 24.812 61.7286 24.8263 61.7462 24.8263Z" fill="black"/>
<path d="M26.4619 2.37046C26.2702 2.27462 26.0466 2.27462 25.823 2.37046" stroke-linecap="round" stroke-linejoin="round"/>
<path d="M25.6311 1.05905C25.6311 1.05905 25.6311 1.05905 25.663 1.05905" stroke-linecap="round" stroke-linejoin="round"/>
<path d="M36.7952 37.6859C37.5309 38.0698 38.4266 38.1018 39.1943 37.7819" stroke-linecap="round" stroke-linejoin="round"/>
<path d="M22.5923 28.6652L36.7952 37.6859" stroke-linecap="round" stroke-linejoin="round"/>
<path d="M39.1943 37.7819L62.6419 26.6499" stroke-linecap="round" stroke-linejoin="round"/>
<path d="M62.6418 26.6489C62.9613 26.5531 63.1849 26.2656 63.2169 25.9461" stroke-linecap="round" stroke-linejoin="round"/>
<path d="M1.41577 15.198L14.4351 23.483" stroke-linecap="round" stroke-linejoin="round"/>
<path d="M15.427 25.626L15.8423 25.4343" stroke-linecap="round" stroke-linejoin="round"/>
<path d="M16.3867 25.1782L16.802 24.9865" stroke-linecap="round" stroke-linejoin="round"/>
<path d="M16.8025 24.9865L20.1933 27.1617" stroke-linecap="round" stroke-linejoin="round"/>
<path d="M21.1848 29.3049L22.5603 28.6652" stroke-linecap="round" stroke-linejoin="round"/>
<path d="M1.15973 12.6709C1.06389 12.7667 1 12.9265 1 13.0543" stroke-linecap="round" stroke-linejoin="round"/>
<path d="M1.19177 12.6706C1.20937 12.6706 1.22364 12.6564 1.22364 12.6388C1.22364 12.6212 1.20937 12.6069 1.19177 12.6069C1.17418 12.6069 1.15991 12.6212 1.15991 12.6388C1.15991 12.6564 1.17418 12.6706 1.19177 12.6706Z" fill="black"/>
<path d="M38.5865 36.4701C38.6041 36.4701 38.6184 36.4558 38.6184 36.4382C38.6184 36.4206 38.6041 36.4064 38.5865 36.4064C38.569 36.4064 38.5547 36.4206 38.5547 36.4382C38.5547 36.4558 38.569 36.4701 38.5865 36.4701Z" fill="black"/>
<path d="M36.7952 36.1505C37.339 36.4383 37.9787 36.5343 38.5865 36.4383" stroke-linecap="round" stroke-linejoin="round"/>
<path d="M22.5923 27.1297L36.7952 36.1505" stroke-linecap="round" stroke-linejoin="round"/>
<path d="M21.8884 27.4492L22.5912 27.1297" stroke-linecap="round" stroke-linejoin="round"/>
<path d="M21.3759 26.362L20.6731 26.6815" stroke-linecap="round" stroke-linejoin="round"/>
<path d="M16.8025 23.451L21.3769 26.362" stroke-linecap="round" stroke-linejoin="round"/>
<path d="M16.1306 23.7705L16.8334 23.451" stroke-linecap="round" stroke-linejoin="round"/>
<path d="M15.6178 22.6833L14.915 23.0028" stroke-linecap="round" stroke-linejoin="round"/>
<path d="M37.4029 35.7024C37.4205 35.7024 37.4348 35.6881 37.4348 35.6705C37.4348 35.6529 37.4205 35.6386 37.4029 35.6386C37.3854 35.6386 37.3711 35.6529 37.3711 35.6705C37.3711 35.6881 37.3854 35.7024 37.4029 35.7024Z" fill="black"/>
<path d="M15.8428 24.7622V24.6666" stroke-linecap="round" stroke-linejoin="round"/>
<path d="M15.8428 25.4338V25.0185" stroke-linecap="round" stroke-linejoin="round"/>
<path d="M16.3867 24.5063V24.4107" stroke-linecap="round" stroke-linejoin="round"/>
<path d="M16.3867 25.1778V24.7625" stroke-linecap="round" stroke-linejoin="round"/>
<path d="M20.0012 28.5372L21.1848 29.305" stroke-linecap="round" stroke-linejoin="round"/>
<path d="M14.2434 24.8905L15.427 25.6582" stroke-linecap="round" stroke-linejoin="round"/>
<path d="M14.2434 24.1228V24.8905" stroke-linecap="round" stroke-linejoin="round"/>
<path d="M15.9066 24.8265C15.9066 24.8265 15.9066 24.8265 15.9066 24.8903C15.9066 24.8903 15.9066 24.954 15.8748 24.954" stroke-linecap="round" stroke-linejoin="round"/>
<path d="M15.8746 24.8583C15.8922 24.8583 15.9065 24.844 15.9065 24.8264C15.9065 24.8088 15.8922 24.7946 15.8746 24.7946C15.857 24.7946 15.8428 24.8088 15.8428 24.8264C15.8428 24.844 15.857 24.8583 15.8746 24.8583Z" fill="black"/>
</svg>
