<svg width="118" height="34" viewBox="0 0 118 34" fill="none" xmlns="http://www.w3.org/2000/svg">
<path d="M53.3377 14.4879C54.4127 15.5094 54.9502 16.8696 54.9502 18.5684V27.7099H50.5917V19.0874C50.6039 18.7539 50.5407 18.4219 50.4066 18.1145C50.2724 17.8072 50.0707 17.5319 49.8152 17.3081C49.2621 16.843 48.5463 16.6003 47.8145 16.6298C47.0164 16.6084 46.2407 16.8869 45.6495 17.4069C45.367 17.6459 45.1418 17.9416 44.9896 18.2737C44.8374 18.6057 44.7619 18.9658 44.7681 19.3291V27.7181H40.4096V13.244H44.3204L44.5584 14.9218C45.1215 14.2946 45.8187 13.7938 46.6018 13.4543C47.3848 13.1147 48.2348 12.9445 49.0926 12.9557C50.8477 12.9557 52.2628 13.4664 53.3377 14.4879ZM64.8942 25.8289C64.172 25.1277 63.6041 24.2919 63.2247 23.3721C62.8452 22.4521 62.6622 21.4673 62.6865 20.4769C62.6622 19.4865 62.8452 18.5018 63.2247 17.5818C63.6041 16.662 64.172 15.8262 64.8942 15.125C66.3678 13.6788 68.2296 12.9557 70.4797 12.9557C71.5067 12.9336 72.5276 13.113 73.4814 13.4827C74.4351 13.8525 75.3018 14.4053 76.0297 15.1077C76.7575 15.8101 77.3313 16.6478 77.7168 17.5704C78.1023 18.4931 78.2913 19.4817 78.2728 20.4769C78.2913 21.4721 78.1023 22.4608 77.7168 23.3834C77.3313 24.3061 76.7575 25.1438 76.0297 25.8461C75.3018 26.5486 74.4351 27.1013 73.4814 27.4711C72.5276 27.8409 71.5067 28.0203 70.4797 27.9982C68.2296 27.9982 66.3678 27.2751 64.8942 25.8289ZM72.9877 23.1955C73.6517 22.4386 74.0022 21.4699 73.971 20.4769C74.003 19.4755 73.6528 18.4979 72.9877 17.7309C72.6735 17.3838 72.2866 17.1057 71.8526 16.915C71.4186 16.7245 70.9477 16.6259 70.4712 16.6259C69.9947 16.6259 69.5238 16.7245 69.0898 16.915C68.6559 17.1057 68.2689 17.3838 67.9547 17.7309C67.2957 18.5005 66.9509 19.4775 66.9856 20.4769C66.9462 21.4771 67.2916 22.4557 67.9547 23.223C68.2723 23.5655 68.661 23.8391 69.0953 24.026C69.5297 24.2129 69.9998 24.3087 70.475 24.3071C70.9502 24.3055 71.4198 24.2067 71.8527 24.017C72.2857 23.8273 72.6725 23.5511 72.9877 23.2064V23.1955ZM100.459 6.01099V27.7044L96.6078 27.7318L96.367 26.2299C95.8242 26.7987 95.1633 27.25 94.4278 27.5538C93.6922 27.8577 92.8986 28.0072 92.0991 27.9928C91.1543 28.0183 90.2155 27.8378 89.3522 27.4648C88.4891 27.0917 87.7233 26.5354 87.1116 25.8371C85.8193 24.4019 85.1723 22.6133 85.1703 20.4714C85.1685 18.3296 85.8155 16.541 87.1116 15.1057C87.7233 14.4074 88.4891 13.8512 89.3522 13.4781C90.2155 13.105 91.1543 12.9246 92.0991 12.9502C92.8494 12.9351 93.5951 13.0656 94.2924 13.3339C94.9898 13.6022 95.6249 14.003 96.1601 14.5126V6L100.459 6.01099ZM94.8905 23.6733C95.4669 23.2454 95.9069 22.6687 96.1601 22.0092V18.9447C95.9022 18.2794 95.4575 17.6974 94.8763 17.2642C94.3322 16.8549 93.6636 16.6319 92.9749 16.6298C92.4959 16.6156 92.0202 16.7071 91.5832 16.8974C91.1463 17.0877 90.7596 17.3718 90.4527 17.7282C89.7937 18.4978 89.4489 19.4748 89.4836 20.4742C89.4441 21.4743 89.7895 22.4529 90.4527 23.2202C90.7607 23.5753 91.1475 23.8585 91.5842 24.0487C92.0209 24.2388 92.4962 24.3311 92.9749 24.3186C93.6697 24.3164 94.3441 24.0893 94.8905 23.6733ZM110.805 10.0614C110.574 9.84327 110.39 9.58243 110.264 9.29425C110.139 9.00606 110.074 8.69639 110.074 8.38353C110.074 8.07067 110.139 7.76098 110.264 7.47279C110.39 7.1846 110.574 6.92377 110.805 6.70572C111.03 6.48292 111.297 6.30645 111.594 6.18703C111.89 6.06762 112.207 6.00771 112.528 6.01099C112.851 6.00663 113.172 6.06515 113.471 6.18308C113.77 6.30102 114.041 6.47595 114.269 6.69748C114.5 6.91553 114.684 7.17636 114.81 7.46455C114.935 7.75274 115 8.06243 115 8.37529C115 8.68816 114.935 8.99784 114.81 9.28603C114.684 9.57421 114.5 9.83505 114.269 10.0532C114.042 10.2776 113.771 10.4556 113.472 10.5764C113.173 10.6971 112.852 10.7583 112.528 10.7561C112.207 10.7594 111.89 10.6995 111.594 10.58C111.297 10.4606 111.03 10.2842 110.805 10.0614ZM110.341 13.244H114.702V27.7099H110.341V13.244ZM27.0254 18.5629L25.308 26.2518C25.308 26.7106 25.12 27.1506 24.7852 27.4751C24.4504 27.7994 23.9962 27.9817 23.5228 27.9817H16.2992C16.3219 26.584 16.2227 25.0023 14.7832 23.0774C13.1933 20.9493 11.5044 20.4577 10.0166 20.0238C8.69888 19.6504 7.56245 19.3291 6.41479 17.7831C5.89204 17.1187 5.54651 16.3396 5.40871 15.5148L6.57065 10.2673C6.57065 9.80852 6.75873 9.36843 7.09352 9.04398C7.42831 8.71958 7.88247 8.53731 8.35591 8.53731H15.656C15.7637 9.91029 16.0187 11.4673 17.6113 13.2385C19.3909 15.221 21.1168 15.5644 22.6414 15.8664C23.9876 16.141 25.1494 16.3661 26.4331 17.7886C26.6537 18.032 26.8554 18.2908 27.0367 18.5629H27.0254ZM19.2946 11.8077C20.5784 13.2385 21.7402 13.4554 23.0891 13.73C24.4381 14.0047 26.0279 14.3176 27.6234 15.8636L28.89 10.2673C28.89 9.80852 28.702 9.36843 28.3672 9.04398C28.0324 8.71958 27.5782 8.53731 27.1048 8.53731H17.8947C17.9484 9.75335 18.4443 10.9118 19.2946 11.8077ZM12.9751 24.3542C11.8416 22.8166 10.691 22.487 9.37615 22.1053C7.88552 21.6715 6.19937 21.1827 4.60682 19.0545L3 26.26C3 26.7188 3.18808 27.1589 3.52287 27.4833C3.85766 27.8078 4.31182 27.99 4.78526 27.99H14.0661C14.0888 26.8147 14.0123 25.7411 12.9751 24.3542Z" fill="black" fill-opacity="0.26"/>
</svg>
