<svg width="32" height="32" viewBox="0 0 32 32" fill="none" xmlns="http://www.w3.org/2000/svg">
<path d="M4.39467 27.4694L12.88 18.984M23.5653 15.2107L21.0253 22.832C20.9846 22.9539 20.9151 23.0642 20.8228 23.1536C20.7304 23.2429 20.6179 23.3087 20.4947 23.3454L4.924 27.9747C4.78372 28.0164 4.6347 28.0188 4.49316 27.9816C4.35162 27.9445 4.22298 27.8692 4.12124 27.764C4.0195 27.6588 3.94855 27.5278 3.91613 27.3851C3.8837 27.2424 3.89104 27.0935 3.93734 26.9547L8.99334 11.7894C9.02957 11.6805 9.08881 11.5807 9.16703 11.4967C9.24525 11.4127 9.34062 11.3466 9.44667 11.3027L16.6293 8.34537C16.7754 8.28506 16.936 8.26934 17.0909 8.30019C17.2459 8.33103 17.3882 8.40707 17.5 8.5187L23.372 14.392C23.4771 14.4971 23.5508 14.6293 23.585 14.7739C23.6191 14.9185 23.6123 15.0698 23.5653 15.2107Z" stroke="white" stroke-width="2" stroke-linecap="round" stroke-linejoin="round"/>
<path d="M24.5372 4.24267L27.6892 7.39467C27.9261 7.62128 28.1153 7.89292 28.2458 8.19366C28.3762 8.49439 28.4453 8.81815 28.4489 9.14594C28.4525 9.47372 28.3906 9.79893 28.2669 10.1025C28.1431 10.406 27.9599 10.6818 27.7281 10.9136C27.4963 11.1454 27.2206 11.3285 26.917 11.4523C26.6135 11.5761 26.2883 11.638 25.9605 11.6343C25.6327 11.6307 25.309 11.5616 25.0082 11.4312C24.7075 11.3007 24.4358 11.1115 24.2092 10.8747L21.0559 7.72267C20.6111 7.25779 20.3661 6.63726 20.3732 5.99394C20.3803 5.35061 20.639 4.73565 21.094 4.28072C21.5489 3.8258 22.1638 3.56708 22.8072 3.55997C23.4505 3.55285 24.0724 3.79791 24.5372 4.24267Z" fill="white" stroke="white" stroke-width="2" stroke-linecap="round" stroke-linejoin="round"/>
<path d="M15.7081 16.1546C15.5236 15.9636 15.3029 15.8113 15.0589 15.7064C14.8149 15.6016 14.5525 15.5465 14.2869 15.5441C14.0214 15.5418 13.758 15.5924 13.5122 15.693C13.2664 15.7936 13.0431 15.9421 12.8553 16.1299C12.6675 16.3176 12.519 16.5409 12.4185 16.7867C12.3179 17.0325 12.2673 17.2959 12.2696 17.5614C12.2719 17.827 12.3271 18.0894 12.4319 18.3335C12.5367 18.5775 12.6891 18.7982 12.8801 18.9826C13.2573 19.347 13.7625 19.5485 14.2869 19.544C14.8113 19.5394 15.3129 19.3291 15.6837 18.9583C16.0546 18.5875 16.2649 18.0858 16.2695 17.5614C16.274 17.0371 16.0724 16.5318 15.7081 16.1546Z" stroke="white" stroke-width="2" stroke-linecap="round" stroke-linejoin="round"/>
</svg>
