<svg width="32" height="32" viewBox="0 0 32 32" fill="none" xmlns="http://www.w3.org/2000/svg">
<path d="M16 12H13.3333M16 8H12M16 16H12M16 24H12M16 20H13.3333M28 4H22.6667M25.3333 4V28M28 28H22.6667M16 26.5C16 27.328 15.3173 28 14.476 28H6.85734C6.65878 28.0016 6.46185 27.964 6.2778 27.8895C6.09375 27.815 5.92618 27.7049 5.78466 27.5656C5.64314 27.4264 5.53045 27.2606 5.45301 27.0777C5.37557 26.8949 5.33491 26.6986 5.33334 26.5V5.33333C5.33334 4.97971 5.47381 4.64057 5.72386 4.39052C5.97391 4.14048 6.31305 4 6.66667 4H14.476C15.3173 4 16 4.672 16 5.5V26.5Z" stroke="currentColor" stroke-width="2.66667" stroke-linecap="round" stroke-linejoin="round"/>
</svg>
