<svg width="24" height="24" viewBox="0 0 24 24" fill="none" xmlns="http://www.w3.org/2000/svg">
<path d="M3 5V9.5C3 9.77614 3.22386 10 3.5 10H4.5C4.77614 10 5 10.2239 5 10.5V11.5C5 11.7761 5.22386 12 5.5 12H18.5C18.7761 12 19 11.7761 19 11.5V10.5C19 10.2239 19.2239 10 19.5 10H20.5C20.7761 10 21 9.77614 21 9.5V5" stroke="#707070" stroke-width="1.5" stroke-linecap="round"/>
<path d="M3 14V18.5C3 18.7761 3.22386 19 3.5 19H20.5C20.7761 19 21 18.7761 21 18.5V14" stroke="#707070" stroke-width="1.5" stroke-linecap="round"/>
</svg>
