<svg width="32" height="32" viewBox="0 0 32 32" fill="none" xmlns="http://www.w3.org/2000/svg">
<path d="M6.18423 3L25.243 23.3521V10.2792C25.243 9.22696 25.2306 8.31087 25.206 7.53095C25.1813 6.73865 25.1443 6.05777 25.0949 5.48831C25.0456 4.90646 24.9839 4.42366 24.9099 4.03989C24.8482 3.65612 24.7804 3.33425 24.7064 3.07428V3H28V3.07428C27.926 3.33425 27.8581 3.65612 27.7965 4.03989C27.7348 4.42366 27.6793 4.90646 27.6299 5.48831C27.5806 6.05777 27.5436 6.73865 27.5189 7.53095C27.4942 8.31087 27.4819 9.22696 27.4819 10.2792V30H26.8343L7.77554 9.66644V22.368C7.77554 23.4202 7.78788 24.3425 7.81255 25.1348C7.83722 25.9147 7.87423 26.5894 7.92357 27.1589C7.97291 27.7283 8.02843 28.205 8.0901 28.5887C8.15178 28.9725 8.21963 29.2944 8.29364 29.5543V29.6286H5V29.5543C5.07401 29.2944 5.14186 28.9725 5.20354 28.5887C5.27755 28.205 5.33923 27.7283 5.38858 27.1589C5.43792 26.5894 5.47493 25.9147 5.4996 25.1348C5.52427 24.3425 5.5366 23.4202 5.5366 22.368V10.2792C5.5366 9.22696 5.52427 8.31087 5.4996 7.53095C5.47493 6.73865 5.43792 6.05777 5.38858 5.48831C5.33923 4.90646 5.27755 4.42366 5.20354 4.03989C5.14186 3.65612 5.07401 3.33425 5 3.07428V3H6.18423Z" fill="black"/>
</svg>
