<svg width="61" height="58" viewBox="0 0 61 58" fill="none" xmlns="http://www.w3.org/2000/svg" stroke-width="0.5" stroke="rgba(0,0,0,.64)" stroke-linecap="round" stroke-linejoin="round">
<path d="M33.2921 5.57702C32.987 5.45497 32.6818 5.33292 32.4072 5.21087C32.3157 5.18035 32.2241 5.11932 32.1326 5.08881" stroke-linecap="round" stroke-linejoin="round"/>
<path d="M38.3877 8.2012C37.7774 7.9876 37.1977 7.77401 36.6179 7.49939" stroke-linecap="round" stroke-linejoin="round"/>
<path d="M50.8983 15.0972C50.6236 15.0057 50.349 14.8836 50.1049 14.7616C49.9523 14.7006 49.7693 14.609 49.6167 14.5175" stroke-linecap="round" stroke-linejoin="round"/>
<path d="M55.872 17.7214C55.2008 17.5078 54.5295 17.2332 53.8887 16.8975" stroke-linecap="round" stroke-linejoin="round"/>
<path d="M50.1661 14.2123C50.0745 14.0598 50.1355 13.8462 50.2881 13.7546C50.3491 13.7241 50.4102 13.6936 50.4712 13.7241" stroke-linecap="round" stroke-linejoin="round"/>
<path d="M37.3502 7.25525C37.2587 7.10268 37.3502 6.88909 37.5028 6.82806C37.5638 6.82806 37.5944 6.79755 37.6554 6.79755" stroke-linecap="round" stroke-linejoin="round"/>
<path d="M19.5 26.2652C19.3474 26.1736 19.2559 25.96 19.2559 25.7769" stroke-linecap="round" stroke-linejoin="round"/>
<path d="M20.6594 26.8754C20.5068 26.7839 20.4153 26.5703 20.4458 26.3872" stroke-linecap="round" stroke-linejoin="round"/>
<path d="M13.8549 23.2138C13.7024 23.1223 13.6108 22.9087 13.6413 22.7256" stroke-linecap="round" stroke-linejoin="round"/>
<path d="M15.0144 23.8546C14.8618 23.7631 14.7703 23.5495 14.7703 23.3664" stroke-linecap="round" stroke-linejoin="round"/>
<path d="M15.5942 21.6881C15.3806 21.6881 15.167 21.8407 15.167 22.0848C15.167 22.1458 15.167 22.2069 15.167 22.2679" stroke-linecap="round" stroke-linejoin="round"/>
<path d="M15.228 22.2679C15.228 22.2679 15.228 22.2679 15.228 22.2984C15.228 22.2984 15.228 22.2984 15.228 22.3289" stroke-linecap="round" stroke-linejoin="round"/>
<path d="M15.6553 22.1764C15.6553 22.1764 15.6553 22.1764 15.6553 22.1459C15.6553 22.1153 15.6553 22.0848 15.6553 22.0543C15.6553 22.0543 15.6553 22.0543 15.6553 22.0238C15.6553 22.0238 15.6553 22.0238 15.6553 21.9933C15.6553 21.9933 15.6553 21.9933 15.6553 21.9628" stroke-linecap="round" stroke-linejoin="round"/>
<path d="M15.228 21.9628L15.6857 22.2069" stroke-linecap="round" stroke-linejoin="round"/>
<path d="M15.6552 22.1764L15.1975 21.9323" stroke-linecap="round" stroke-linejoin="round"/>
<path d="M32.3157 3.28851C32.4988 3.41057 32.6818 3.50211 32.8649 3.59365C33.048 3.68519 33.2311 3.80724 33.4447 3.89878" stroke-linecap="round" stroke-linejoin="round"/>
<path d="M49.4641 12.5646C49.9828 12.6867 50.4711 12.9613 50.8372 13.3274" stroke-linecap="round" stroke-linejoin="round"/>
<path d="M54.0715 15.0362C54.2546 15.1277 54.4377 15.2498 54.6208 15.3413C54.8039 15.4329 54.9869 15.5549 55.2005 15.6465" stroke-linecap="round" stroke-linejoin="round"/>
<path d="M15.2891 23.763C15.228 23.7325 15.1975 23.641 15.1975 23.58" stroke-linecap="round" stroke-linejoin="round"/>
<path d="M60.2964 20.3456C60.2964 29.1639 60.2964 37.9518 60.2964 46.7702" stroke-linecap="round" stroke-linejoin="round"/>
<path d="M59.2285 20.315C59.2285 20.315 59.2285 20.315 59.2285 20.3455" stroke-linecap="round" stroke-linejoin="round"/>
<path d="M33.2004 4.35648C33.292 4.44802 33.3225 4.57007 33.2615 4.69213" stroke-linecap="round" stroke-linejoin="round"/>
<path d="M21.7274 27.1501C21.6053 27.1195 21.5138 27.089 21.3917 27.089C21.2697 27.089 21.0866 27.028 20.9646 26.9975C20.9035 26.9975 20.812 26.967 20.751 26.9365C20.7204 26.9365 20.6899 26.9365 20.6594 26.9059" stroke-linecap="round" stroke-linejoin="round"/>
<path d="M54.3767 16.0126C54.5293 15.7075 54.8649 15.5549 55.2006 15.6465" stroke-linecap="round" stroke-linejoin="round"/>
<path d="M59.9302 20.7422C60.1133 20.6812 60.2353 20.5286 60.2658 20.3456" stroke-linecap="round" stroke-linejoin="round"/>
<path d="M59.2285 20.3456C59.2285 20.3761 59.198 20.4066 59.137 20.4371" stroke-linecap="round" stroke-linejoin="round"/>
<path d="M24.5652 1.51874L59.1064 20.1625" stroke-linecap="round" stroke-linejoin="round"/>
<path d="M1.95459 11.1305C9.27782 7.92657 16.6011 4.72265 23.9243 1.51874" stroke-linecap="round" stroke-linejoin="round"/>
<path d="M1.86328 11.4051C1.83276 11.3746 1.80225 11.3441 1.80225 11.3136" stroke-linecap="round" stroke-linejoin="round"/>
<path d="M1.89355 11.4661C1.9104 11.4661 1.92406 11.4525 1.92406 11.4356C1.92406 11.4188 1.9104 11.4051 1.89355 11.4051C1.8767 11.4051 1.86304 11.4188 1.86304 11.4356C1.86304 11.4525 1.8767 11.4661 1.89355 11.4661Z" fill="black"/>
<path d="M1.92407 11.4356L36.4653 30.0793" stroke-linecap="round" stroke-linejoin="round"/>
<path d="M37.1062 30.1099L59.0759 20.4981" stroke-linecap="round" stroke-linejoin="round"/>
<path d="M53.8582 23.2748C53.9192 23.2748 54.0107 23.2138 54.0718 23.2138C54.1938 23.1833 54.2853 23.1528 54.4074 23.1223" stroke-linecap="round" stroke-linejoin="round"/>
<path d="M51.1118 24.6785C51.9662 24.0682 52.8816 23.6105 53.858 23.2748" stroke-linecap="round" stroke-linejoin="round"/>
<path d="M50.3796 24.9836L51.112 24.6785" stroke-linecap="round" stroke-linejoin="round"/>
<path d="M46.1992 26.8449C47.4808 25.96 48.8844 25.3497 50.3796 25.0141" stroke-linecap="round" stroke-linejoin="round"/>
<path d="M41.1951 29.0114C42.4766 28.1265 43.9413 27.4857 45.4975 27.1195" stroke-linecap="round" stroke-linejoin="round"/>
<path d="M37.5334 30.415C38.5099 29.9268 39.5168 29.5606 40.5543 29.3165" stroke-linecap="round" stroke-linejoin="round"/>
<path d="M37.3808 30.4455C37.2587 30.5065 37.1061 30.537 36.9536 30.5675C36.8315 30.5675 36.7095 30.5981 36.5569 30.5981" stroke-linecap="round" stroke-linejoin="round"/>
<path d="M36.5875 30.5981C36.2824 30.6286 35.9773 30.5981 35.6721 30.4455" stroke-linecap="round" stroke-linejoin="round"/>
<path d="M35.3975 30.2929C35.489 30.354 35.5805 30.415 35.7026 30.4455" stroke-linecap="round" stroke-linejoin="round"/>
<path d="M31.5527 28.218C32.9564 28.6147 34.2989 29.3165 35.3974 30.2929" stroke-linecap="round" stroke-linejoin="round"/>
<path d="M27.1892 25.838C27.3723 25.899 27.5554 25.96 27.7079 26.021" stroke-linecap="round" stroke-linejoin="round"/>
<path d="M26.579 25.5328L25.7856 24.8921" stroke-linecap="round" stroke-linejoin="round"/>
<path d="M24.9924 24.4038C25.145 24.4954 25.2671 24.5564 25.3891 24.6479" stroke-linecap="round" stroke-linejoin="round"/>
<path d="M22.7344 23.4579C23.4667 23.702 24.1685 23.9766 24.8703 24.3428" stroke-linecap="round" stroke-linejoin="round"/>
<path d="M19.2559 22.9087L20.9036 22.2068" stroke-linecap="round" stroke-linejoin="round"/>
<path d="M19.927 21.6881C20.0491 21.7492 20.1711 21.8102 20.2932 21.8712" stroke-linecap="round" stroke-linejoin="round"/>
<path d="M18.9507 21.261C19.1033 21.322 19.2558 21.383 19.4084 21.444C19.5304 21.5051 19.683 21.5661 19.8051 21.5966" stroke-linecap="round" stroke-linejoin="round"/>
<path d="M13.9465 18.6673C14.1906 18.7588 14.4042 18.8199 14.6483 18.9114" stroke-linecap="round" stroke-linejoin="round"/>
<path d="M9.43042 16.2567C10.1627 16.5009 10.8646 16.7755 11.5358 17.1416" stroke-linecap="round" stroke-linejoin="round"/>
<path d="M4.85352 13.8157C6.31816 14.2429 7.66075 14.9447 8.78975 15.9516" stroke-linecap="round" stroke-linejoin="round"/>
<path d="M2.01571 12.0154C1.61904 11.8628 1.22236 11.6797 0.825684 11.4661" stroke-linecap="round" stroke-linejoin="round"/>
<path d="M31.2781 4.26495C31.6748 4.47855 32.0409 4.69214 32.4376 4.90574" stroke-linecap="round" stroke-linejoin="round"/>
<path d="M36.8927 7.31629C36.8927 7.31629 36.8316 7.28577 36.8011 7.25526C36.7706 7.25526 36.7401 7.22475 36.7096 7.19424C36.7096 7.19424 36.6791 7.19424 36.6486 7.16372C36.6486 7.16372 36.5875 7.16372 36.557 7.13321C36.5265 7.13321 36.496 7.10269 36.435 7.07218C36.3739 7.07218 36.3434 7.01115 36.2824 6.98064C36.2214 6.98064 36.1908 6.91962 36.1298 6.8891C36.0688 6.85859 35.9773 6.79756 35.9162 6.76704C35.9162 6.76704 35.8552 6.76705 35.8247 6.73654C35.8247 6.73654 35.7331 6.67551 35.6721 6.67551" stroke-linecap="round" stroke-linejoin="round"/>
<path d="M49.7083 14.2429C49.7083 14.2429 49.6778 14.2429 49.6168 14.2124C49.6168 14.2124 49.5558 14.2123 49.5253 14.1818C49.4642 14.1818 49.4032 14.1208 49.3727 14.0903C49.3422 14.0903 49.3117 14.0598 49.2506 14.0293C49.1896 14.0293 49.1591 13.9682 49.0981 13.9377C49.037 13.9377 49.0065 13.8767 48.9455 13.8462C48.915 13.8462 48.8845 13.8157 48.8234 13.7852C48.7624 13.7852 48.7014 13.7241 48.6709 13.6936C48.6099 13.6936 48.5488 13.6326 48.5183 13.6021" stroke-linecap="round" stroke-linejoin="round"/>
<path d="M53.0342 16.0126C53.4309 16.2262 53.797 16.4398 54.1937 16.6534" stroke-linecap="round" stroke-linejoin="round"/>
<path d="M56.7874 22.0238C57.7028 21.4745 58.7097 21.0779 59.7472 20.8033" stroke-linecap="round" stroke-linejoin="round"/>
<path d="M4.88403 40.1793C4.88403 31.4219 4.88403 22.6036 4.88403 13.7852" stroke-linecap="round" stroke-linejoin="round"/>
<path d="M26.5791 25.5328V51.927" stroke-linecap="round" stroke-linejoin="round"/>
<path d="M27.0369 52.1711V25.7769" stroke-linecap="round" stroke-linejoin="round"/>
<path d="M22.5513 49.73V23.3359" stroke-linecap="round" stroke-linejoin="round"/>
<path d="M13.3057 44.7563V18.3622" stroke-linecap="round" stroke-linejoin="round"/>
<path d="M18.0657 20.9558V47.35" stroke-linecap="round" stroke-linejoin="round"/>
<path d="M31.0034 27.9434C31.0034 36.7008 31.0034 45.4886 31.0034 54.307" stroke-linecap="round" stroke-linejoin="round"/>
<path d="M8.82031 15.9516C8.82031 24.77 8.82031 33.5579 8.82031 42.3152" stroke-linecap="round" stroke-linejoin="round"/>
<path d="M15.6857 23.3664C15.6857 23.58 15.5332 23.7631 15.3196 23.7936H15.2585" stroke-linecap="round" stroke-linejoin="round"/>
<path d="M16.0824 24.1292C15.9603 24.0987 15.8688 24.0987 15.7467 24.0682C15.6247 24.0682 15.4416 24.0072 15.289 23.9766C15.2585 23.9766 15.228 23.9766 15.1975 23.9461C15.1975 23.9461 15.167 23.9461 15.1365 23.9461C15.1059 23.9461 15.1059 23.9461 15.0754 23.9461C15.0449 23.9461 15.0144 23.9461 14.9839 23.9156" stroke-linecap="round" stroke-linejoin="round"/>
<path d="M14.8008 20.4981L16.4485 19.7658" stroke-linecap="round" stroke-linejoin="round"/>
<path d="M20.4153 23.5495L21.8494 22.9087" stroke-linecap="round" stroke-linejoin="round"/>
<path d="M22.124 23.1223V49.5164" stroke-linecap="round" stroke-linejoin="round"/>
<path d="M9.27783 42.5593V16.1652" stroke-linecap="round" stroke-linejoin="round"/>
<path d="M45.4973 27.1501C45.4973 35.9379 45.4973 44.7258 45.4973 53.5442" stroke-linecap="round" stroke-linejoin="round"/>
<path d="M46.1382 53.2391C46.1382 44.3291 46.1687 35.5412 46.1992 26.8449" stroke-linecap="round" stroke-linejoin="round"/>
<path d="M50.3796 24.9836C50.3796 33.6799 50.3796 42.4678 50.4102 51.3472" stroke-linecap="round" stroke-linejoin="round"/>
<path d="M51.0813 51.0726C51.0813 42.2237 51.0813 33.4358 51.0813 24.6785" stroke-linecap="round" stroke-linejoin="round"/>
<path d="M41.1951 55.4055C41.1951 46.6177 41.1951 37.8298 41.1951 29.0114" stroke-linecap="round" stroke-linejoin="round"/>
<path d="M55.5059 49.1197V22.7256" stroke-linecap="round" stroke-linejoin="round"/>
<path d="M55.9939 48.9367C55.9939 40.3624 55.9939 31.544 55.9939 22.5425" stroke-linecap="round" stroke-linejoin="round"/>
<path d="M54.6209 16.6229C54.5294 16.4398 54.5904 16.2262 54.7735 16.1347C54.8345 16.1042 54.8955 16.0737 54.9871 16.0737" stroke-linecap="round" stroke-linejoin="round"/>
<path d="M54.1938 16.6534C54.1938 16.5924 54.1938 16.5314 54.1938 16.4703C54.1938 16.4093 54.2244 16.3483 54.2549 16.2567" stroke-linecap="round" stroke-linejoin="round"/>
<path d="M49.7083 14.2428C49.7083 14.1818 49.7083 14.1208 49.7083 14.0293C49.7083 13.9682 49.7388 13.8767 49.7693 13.8157C49.7998 13.7241 49.8608 13.6326 49.9218 13.541C49.9829 13.4495 50.0744 13.3885 50.1354 13.3274C50.1965 13.2664 50.288 13.2359 50.3796 13.2054C50.4711 13.2054 50.5321 13.2054 50.5931 13.2054C50.6542 13.2054 50.7152 13.2664 50.7762 13.3274" stroke-linecap="round" stroke-linejoin="round"/>
<path d="M32.6208 4.26495C32.7734 3.95982 33.1091 3.80725 33.4447 3.89879" stroke-linecap="round" stroke-linejoin="round"/>
<path d="M32.4377 4.90571C32.4377 4.84469 32.4377 4.78366 32.4377 4.72263C32.4377 4.6616 32.4683 4.60057 32.4988 4.50903" stroke-linecap="round" stroke-linejoin="round"/>
<path d="M36.8926 7.31629C36.8926 7.25526 36.8926 7.22475 36.8926 7.13321C36.8926 7.07218 36.8926 7.01115 36.9536 6.95012C36.9841 6.85858 37.0451 6.76704 37.1062 6.6755C37.1672 6.58396 37.2587 6.49243 37.3198 6.4314C37.4113 6.37037 37.4723 6.30934 37.5639 6.30934C37.6554 6.30934 37.7164 6.27882 37.808 6.30934C37.869 6.30934 37.9606 6.33986 37.9911 6.40088" stroke-linecap="round" stroke-linejoin="round"/>
<path d="M15.6857 22.2374L15.1975 21.9628" stroke-linecap="round" stroke-linejoin="round"/>
<path d="M15.1975 23.58V22.4815" stroke-linecap="round" stroke-linejoin="round"/>
<path d="M14.8009 23.3664L13.6414 22.7256" stroke-linecap="round" stroke-linejoin="round"/>
<path d="M13.6414 19.8878L14.8009 20.5286" stroke-linecap="round" stroke-linejoin="round"/>
<path d="M14.8008 20.4981V23.3664" stroke-linecap="round" stroke-linejoin="round"/>
<path d="M19.2559 25.7769L20.4154 26.4177" stroke-linecap="round" stroke-linejoin="round"/>
<path d="M20.4154 23.5495L19.2559 22.9087" stroke-linecap="round" stroke-linejoin="round"/>
<path d="M13.6414 19.8878L15.2586 19.186" stroke-linecap="round" stroke-linejoin="round"/>
<path d="M17.6387 20.7117V47.1059" stroke-linecap="round" stroke-linejoin="round"/>
<path d="M13.7634 45.0004V23.1528" stroke-linecap="round" stroke-linejoin="round"/>
<path d="M2.01562 38.4095V12.0154" stroke-linecap="round" stroke-linejoin="round"/>
<path d="M31.5527 54.6122C31.5527 45.8243 31.5527 37.0364 31.5527 28.218" stroke-linecap="round" stroke-linejoin="round"/>
<path d="M35.3975 30.2929C35.3975 39.0198 35.3975 47.9297 35.3975 56.6871" stroke-linecap="round" stroke-linejoin="round"/>
<path d="M40.5542 29.3165C40.5542 38.0739 40.5542 46.8923 40.5542 55.7107" stroke-linecap="round" stroke-linejoin="round"/>
<path d="M59.7166 47.1974V20.8033" stroke-linecap="round" stroke-linejoin="round"/>
<path d="M36.5874 56.9922V30.5981" stroke-linecap="round" stroke-linejoin="round"/>
<path d="M3.48047 39.2029C3.48047 37.0059 3.48047 34.8089 3.48047 32.612C3.48047 30.476 3.48047 28.3096 3.48047 26.1431C3.48047 23.9156 3.48047 21.6881 3.48047 19.4606C3.48047 17.2332 3.48047 15.0057 3.48047 12.7782" stroke-linecap="round" stroke-linejoin="round"/>
<path d="M4.33472 13.5105V39.9047" stroke-linecap="round" stroke-linejoin="round"/>
<path d="M0.856201 37.8603V11.4661" stroke-linecap="round" stroke-linejoin="round"/>
<path d="M0.764648 22.7866C0.764648 27.7908 0.764648 32.7645 0.764648 37.7687" stroke-linecap="round" stroke-linejoin="round"/>
<path d="M15.1975 22.2984C15.2144 22.2984 15.228 22.2847 15.228 22.2679C15.228 22.251 15.2144 22.2374 15.1975 22.2374C15.1806 22.2374 15.167 22.251 15.167 22.2679C15.167 22.2847 15.1806 22.2984 15.1975 22.2984Z" fill="black"/>
<path d="M37.6555 6.79756C37.6724 6.79756 37.686 6.7839 37.686 6.76705C37.686 6.7502 37.6724 6.73654 37.6555 6.73654C37.6387 6.73654 37.625 6.7502 37.625 6.76705C37.625 6.7839 37.6387 6.79756 37.6555 6.79756Z" fill="black"/>
<path d="M1.802 11.3136C1.81885 11.3136 1.83251 11.2999 1.83251 11.283C1.83251 11.2662 1.81885 11.2525 1.802 11.2525C1.78514 11.2525 1.77148 11.2662 1.77148 11.283C1.77148 11.2999 1.78514 11.3136 1.802 11.3136Z" fill="black"/>
<path d="M54.9565 16.1347C54.9734 16.1347 54.9871 16.121 54.9871 16.1042C54.9871 16.0873 54.9734 16.0737 54.9565 16.0737C54.9397 16.0737 54.926 16.0873 54.926 16.1042C54.926 16.121 54.9397 16.1347 54.9565 16.1347Z" fill="black"/>
<path d="M33.2004 4.38699C33.2173 4.38699 33.2309 4.37333 33.2309 4.35647C33.2309 4.33962 33.2173 4.32596 33.2004 4.32596C33.1836 4.32596 33.1699 4.33962 33.1699 4.35647C33.1699 4.37333 33.1836 4.38699 33.2004 4.38699Z" fill="black"/>
<path d="M50.4712 13.7241C50.488 13.7241 50.5017 13.7105 50.5017 13.6936C50.5017 13.6767 50.488 13.6631 50.4712 13.6631C50.4543 13.6631 50.4407 13.6767 50.4407 13.6936C50.4407 13.7105 50.4543 13.7241 50.4712 13.7241Z" fill="black"/>
<path d="M15.228 22.3289C15.2449 22.3289 15.2585 22.3153 15.2585 22.2984C15.2585 22.2815 15.2449 22.2679 15.228 22.2679C15.2112 22.2679 15.1975 22.2815 15.1975 22.2984C15.1975 22.3153 15.2112 22.3289 15.228 22.3289Z" fill="black"/>
<path d="M13.9465 23.2443C13.9465 23.2443 13.8855 23.2443 13.855 23.2138" stroke-linecap="round" stroke-linejoin="round"/>
<path d="M13.7634 19.8268V18.6063" stroke-linecap="round" stroke-linejoin="round"/>
<path d="M1.83252 11.3746C1.83252 11.3136 1.83252 11.2525 1.83252 11.1915" stroke-linecap="round" stroke-linejoin="round"/>
<path d="M33.4445 3.89877C33.5056 3.92929 33.5361 3.99031 33.5971 4.05134C33.6276 4.11237 33.6581 4.20391 33.6581 4.26494C33.6581 4.35648 33.6581 4.47853 33.6276 4.57007C33.5971 4.72264 33.5361 4.87521 33.4445 4.99726C33.353 5.18034 33.2615 5.33291 33.1394 5.51599" stroke-linecap="round" stroke-linejoin="round"/>
<path d="M50.8373 13.2969C50.8984 13.358 50.9289 13.419 50.9289 13.5105C50.9289 13.6021 50.9289 13.6936 50.9289 13.7851C50.9289 13.8767 50.9289 13.9682 50.8679 14.0293C50.8373 14.1208 50.8068 14.1818 50.7458 14.2734C50.6848 14.3649 50.5627 14.5785 50.3796 14.8836" stroke-linecap="round" stroke-linejoin="round"/>
<path d="M38.0217 6.37036C38.0522 6.40087 38.0827 6.4619 38.1132 6.52293C38.1132 6.61447 38.1437 6.70601 38.1132 6.79755C38.1132 6.88909 38.1132 6.98063 38.0522 7.10268C38.0217 7.19422 37.9606 7.28576 37.8996 7.3773C37.7776 7.56038 37.686 7.74347 37.564 7.92655" stroke-linecap="round" stroke-linejoin="round"/>
<path d="M36.6484 5.63806C37.1672 5.76012 37.6249 6.03473 38.0215 6.37038" stroke-linecap="round" stroke-linejoin="round"/>
<path d="M55.2006 15.6465C55.2617 15.677 55.2922 15.738 55.3532 15.799C55.3837 15.86 55.4142 15.9516 55.4142 16.0126C55.4142 16.1042 55.4142 16.2262 55.3837 16.3178C55.3532 16.4703 55.2922 16.6229 55.2006 16.7449C55.1091 16.928 54.987 17.1111 54.865 17.2942" stroke-linecap="round" stroke-linejoin="round"/>
<path d="M54.6514 16.6534C54.8039 16.6839 54.9565 16.5924 55.0175 16.4398" stroke-linecap="round" stroke-linejoin="round"/>
<path d="M32.8953 4.90574C33.0478 4.93625 33.2004 4.84471 33.2614 4.69214" stroke-linecap="round" stroke-linejoin="round"/>
<path d="M37.3809 7.28576C37.3809 7.28576 37.3503 7.28576 37.3503 7.25525" stroke-linecap="round" stroke-linejoin="round"/>
<path d="M37.6555 6.79755C37.7471 6.88909 37.7776 7.07217 37.6555 7.19423" stroke-linecap="round" stroke-linejoin="round"/>
<path d="M60.2963 46.7702C60.2658 46.9533 60.1438 47.0753 59.9607 47.1059" stroke-linecap="round" stroke-linejoin="round"/>
<path d="M1.80225 11.283C1.80225 11.283 1.80225 11.283 1.80225 11.2525" stroke-linecap="round" stroke-linejoin="round"/>
<path d="M54.9565 16.1042C55.0481 16.1957 55.0786 16.3178 55.0176 16.4398" stroke-linecap="round" stroke-linejoin="round"/>
<path d="M50.4712 13.6936C50.5627 13.8157 50.5932 13.9682 50.4712 14.0903" stroke-linecap="round" stroke-linejoin="round"/>
<path d="M15.6858 22.2374C15.6858 22.2374 15.6858 22.2374 15.6858 22.2068" stroke-linecap="round" stroke-linejoin="round"/>
<path d="M56.3603 48.662C56.2382 48.7536 56.1162 48.8451 55.9636 48.9367" stroke-linecap="round" stroke-linejoin="round"/>
<path d="M56.7873 48.4179C56.6347 48.5095 56.5127 48.5705 56.3906 48.6621" stroke-linecap="round" stroke-linejoin="round"/>
<path d="M59.7166 47.1974C58.6792 47.472 57.6722 47.8687 56.7568 48.4179" stroke-linecap="round" stroke-linejoin="round"/>
<path d="M59.9607 47.1059C59.9302 47.1059 59.8996 47.1059 59.8691 47.1364C59.8386 47.1364 59.7776 47.1364 59.7471 47.1669" stroke-linecap="round" stroke-linejoin="round"/>
<path d="M0.764648 37.7687V37.6772" stroke-linecap="round" stroke-linejoin="round"/>
<path d="M0.764648 37.7687C0.764648 37.7993 0.825676 37.8298 0.85619 37.8603" stroke-linecap="round" stroke-linejoin="round"/>
<path d="M0.856201 37.8603C1.22236 38.0739 1.61904 38.257 2.04622 38.4095" stroke-linecap="round" stroke-linejoin="round"/>
<path d="M3.0836 38.9588C2.74795 38.7452 2.38179 38.5621 2.01562 38.4095" stroke-linecap="round" stroke-linejoin="round"/>
<path d="M3.48041 39.2029C3.38887 39.1419 3.29733 39.0808 3.20579 39.0198C3.17528 39.0198 3.14477 38.9588 3.08374 38.9588" stroke-linecap="round" stroke-linejoin="round"/>
<path d="M4.33472 39.9047L4.88396 40.2098" stroke-linecap="round" stroke-linejoin="round"/>
<path d="M8.78975 42.3152C7.66075 41.3388 6.31816 40.6065 4.85352 40.2098" stroke-linecap="round" stroke-linejoin="round"/>
<path d="M9.4304 42.6509L9.24731 42.5899" stroke-linecap="round" stroke-linejoin="round"/>
<path d="M11.5969 43.5358C10.8951 43.1696 10.1933 42.8645 9.46094 42.6509" stroke-linecap="round" stroke-linejoin="round"/>
<path d="M11.5969 43.5663C11.6138 43.5663 11.6274 43.5526 11.6274 43.5358C11.6274 43.5189 11.6138 43.5053 11.5969 43.5053C11.5801 43.5053 11.5664 43.5189 11.5664 43.5358C11.5664 43.5526 11.5801 43.5663 11.5969 43.5663Z" fill="black"/>
<path d="M11.719 43.6273C11.719 43.6273 11.658 43.6273 11.658 43.5968" stroke-linecap="round" stroke-linejoin="round"/>
<path d="M11.9021 43.7189C11.841 43.6883 11.78 43.6578 11.719 43.6273" stroke-linecap="round" stroke-linejoin="round"/>
<path d="M13.1837 44.6648C12.787 44.2986 12.3598 43.9935 11.9021 43.7189" stroke-linecap="round" stroke-linejoin="round"/>
<path d="M13.1836 44.6648L13.3362 44.7563" stroke-linecap="round" stroke-linejoin="round"/>
<path d="M13.7634 45.0004L13.3362 44.7563" stroke-linecap="round" stroke-linejoin="round"/>
<path d="M14.6178 45.3056C14.4042 45.214 14.1601 45.1225 13.916 45.0615" stroke-linecap="round" stroke-linejoin="round"/>
<path d="M14.9838 45.4276C14.8618 45.3971 14.7702 45.3361 14.6482 45.3056" stroke-linecap="round" stroke-linejoin="round"/>
<path d="M15.9298 45.8853C15.6247 45.7327 15.3195 45.5802 14.9839 45.4581" stroke-linecap="round" stroke-linejoin="round"/>
<path d="M16.4487 46.1905C16.3266 46.0989 16.2046 46.0379 16.052 45.9464" stroke-linecap="round" stroke-linejoin="round"/>
<path d="M16.8452 46.4651C16.7231 46.3735 16.6011 46.282 16.479 46.221" stroke-linecap="round" stroke-linejoin="round"/>
<path d="M16.8452 46.4651L16.9673 46.5566" stroke-linecap="round" stroke-linejoin="round"/>
<path d="M17.0894 46.6176L17.2114 46.7092" stroke-linecap="round" stroke-linejoin="round"/>
<path d="M17.2114 46.7092L17.3335 46.8007" stroke-linecap="round" stroke-linejoin="round"/>
<path d="M17.6386 47.1059L17.303 46.8312" stroke-linecap="round" stroke-linejoin="round"/>
<path d="M18.0659 47.3195L17.6387 47.0753" stroke-linecap="round" stroke-linejoin="round"/>
<path d="M18.0657 47.3195C18.3403 47.4415 18.6149 47.533 18.92 47.6551" stroke-linecap="round" stroke-linejoin="round"/>
<path d="M19.7745 47.9907C19.6525 47.9297 19.4999 47.8687 19.3779 47.8382C19.2253 47.7771 19.0727 47.7161 18.9202 47.6551" stroke-linecap="round" stroke-linejoin="round"/>
<path d="M19.927 48.0518C19.866 48.0518 19.8354 47.9908 19.7744 47.9908" stroke-linecap="round" stroke-linejoin="round"/>
<path d="M19.927 48.0518L20.0491 48.1128" stroke-linecap="round" stroke-linejoin="round"/>
<path d="M20.934 48.601C20.7814 48.5095 20.6594 48.4179 20.5068 48.3264C20.3542 48.2349 20.2322 48.1738 20.0796 48.1128" stroke-linecap="round" stroke-linejoin="round"/>
<path d="M21.88 49.3333C21.6969 49.1503 21.4833 48.9977 21.2697 48.8451C21.1782 48.7841 21.0561 48.6926 20.9341 48.6315" stroke-linecap="round" stroke-linejoin="round"/>
<path d="M22.0019 49.4249C21.9714 49.3944 21.9409 49.3639 21.8799 49.3333" stroke-linecap="round" stroke-linejoin="round"/>
<path d="M22.124 49.5164L22.002 49.4249" stroke-linecap="round" stroke-linejoin="round"/>
<path d="M22.124 49.5164L22.5512 49.7605" stroke-linecap="round" stroke-linejoin="round"/>
<path d="M22.7344 49.8215L22.5513 49.73" stroke-linecap="round" stroke-linejoin="round"/>
<path d="M24.8703 50.7065C24.199 50.3708 23.4667 50.0657 22.7344 49.8216" stroke-linecap="round" stroke-linejoin="round"/>
<path d="M24.8704 50.737C24.8872 50.737 24.9009 50.7233 24.9009 50.7064C24.9009 50.6896 24.8872 50.6759 24.8704 50.6759C24.8535 50.6759 24.8398 50.6896 24.8398 50.7064C24.8398 50.7233 24.8535 50.737 24.8704 50.737Z" fill="black"/>
<path d="M24.9009 50.7065C24.9009 50.7065 24.9314 50.7065 24.9619 50.7065" stroke-linecap="round" stroke-linejoin="round"/>
<path d="M24.9619 50.798C24.9788 50.798 24.9924 50.7843 24.9924 50.7675C24.9924 50.7506 24.9788 50.737 24.9619 50.737C24.9451 50.737 24.9314 50.7506 24.9314 50.7675C24.9314 50.7843 24.9451 50.798 24.9619 50.798Z" fill="black"/>
<path d="M25.4196 51.0421C25.2976 50.9506 25.145 50.8895 25.0229 50.798" stroke-linecap="round" stroke-linejoin="round"/>
<path d="M25.6635 51.1947C25.572 51.1337 25.511 51.0726 25.4194 51.0421" stroke-linecap="round" stroke-linejoin="round"/>
<path d="M25.7856 51.2862C25.7551 51.2862 25.6941 51.2252 25.6636 51.1947" stroke-linecap="round" stroke-linejoin="round"/>
<path d="M25.7856 51.3167C25.8025 51.3167 25.8162 51.3031 25.8162 51.2862C25.8162 51.2694 25.8025 51.2557 25.7856 51.2557C25.7688 51.2557 25.7551 51.2694 25.7551 51.2862C25.7551 51.3031 25.7688 51.3167 25.7856 51.3167Z" fill="black"/>
<path d="M25.7856 51.2862L26.579 51.927" stroke-linecap="round" stroke-linejoin="round"/>
<path d="M27.0368 52.1711L26.6096 51.927" stroke-linecap="round" stroke-linejoin="round"/>
<path d="M27.1894 52.2321L27.0369 52.1711" stroke-linecap="round" stroke-linejoin="round"/>
<path d="M27.7385 52.4152C27.5554 52.3542 27.3723 52.2931 27.2197 52.2321" stroke-linecap="round" stroke-linejoin="round"/>
<path d="M28.4098 52.6898C28.1962 52.5983 27.9521 52.5067 27.7385 52.4152" stroke-linecap="round" stroke-linejoin="round"/>
<path d="M28.5625 52.7509C28.5015 52.7509 28.4404 52.6898 28.3794 52.6898" stroke-linecap="round" stroke-linejoin="round"/>
<path d="M28.5625 52.7509L28.7151 52.8119" stroke-linecap="round" stroke-linejoin="round"/>
<path d="M28.8979 52.9034C28.8369 52.9034 28.8064 52.8424 28.7454 52.8424" stroke-linecap="round" stroke-linejoin="round"/>
<path d="M28.8979 52.9034L29.0505 52.9644" stroke-linecap="round" stroke-linejoin="round"/>
<path d="M29.3862 53.1475C29.2641 53.0865 29.1726 53.0255 29.0505 52.9644" stroke-linecap="round" stroke-linejoin="round"/>
<path d="M31.0034 54.307C30.4847 53.8799 29.9355 53.4832 29.3557 53.1475" stroke-linecap="round" stroke-linejoin="round"/>
<path d="M35.3974 56.6871C34.2989 55.7107 32.9869 55.0089 31.5527 54.6122" stroke-linecap="round" stroke-linejoin="round"/>
<path d="M35.3975 56.6871C35.489 56.7481 35.5805 56.8091 35.7026 56.8396" stroke-linecap="round" stroke-linejoin="round"/>
<path d="M35.6721 56.8397C35.9467 56.9617 36.2824 57.0227 36.5875 56.9922" stroke-linecap="round" stroke-linejoin="round"/>
<path d="M36.5874 56.9922C36.74 56.9922 36.862 56.9922 36.9841 56.9617C37.1367 56.9617 37.2587 56.9007 37.4113 56.8397" stroke-linecap="round" stroke-linejoin="round"/>
<path d="M37.5334 56.7786L37.4114 56.8396" stroke-linecap="round" stroke-linejoin="round"/>
<path d="M40.5238 55.6801C39.4863 55.9243 38.4794 56.2904 37.5029 56.7786" stroke-linecap="round" stroke-linejoin="round"/>
<path d="M40.5237 55.6801L41.1645 55.4055" stroke-linecap="round" stroke-linejoin="round"/>
<path d="M45.467 53.5137C43.9413 53.8494 42.4766 54.4901 41.1646 55.4055" stroke-linecap="round" stroke-linejoin="round"/>
<path d="M46.1381 53.2391L45.4973 53.5137" stroke-linecap="round" stroke-linejoin="round"/>
<path d="M50.4101 51.3472C48.8844 51.6829 47.4197 52.3237 46.1077 53.2391" stroke-linecap="round" stroke-linejoin="round"/>
<path d="M50.4102 51.3472L51.0814 51.0726" stroke-linecap="round" stroke-linejoin="round"/>
<path d="M53.858 49.6385C52.8816 49.9741 51.9357 50.4624 51.0813 51.0726" stroke-linecap="round" stroke-linejoin="round"/>
<path d="M53.8582 49.6385C53.9192 49.6385 54.0107 49.5774 54.0718 49.5774C54.1938 49.5469 54.2853 49.5164 54.4074 49.4859" stroke-linecap="round" stroke-linejoin="round"/>
<path d="M54.4072 49.4859C54.5903 49.4249 54.7429 49.3944 54.8954 49.3333C55.109 49.2723 55.3226 49.2113 55.5057 49.1198" stroke-linecap="round" stroke-linejoin="round"/>
<path d="M16.052 45.9463L15.8994 45.8548" stroke-linecap="round" stroke-linejoin="round"/>
<path d="M17.9438 3.68518C17.1809 4.02083 16.3571 4.29544 15.5332 4.47852" stroke-linecap="round" stroke-linejoin="round"/>
<path d="M59.1064 20.4981C59.1233 20.4981 59.1369 20.4844 59.1369 20.4676C59.1369 20.4507 59.1233 20.4371 59.1064 20.4371C59.0896 20.4371 59.0759 20.4507 59.0759 20.4676C59.0759 20.4844 59.0896 20.4981 59.1064 20.4981Z" fill="black"/>
<path d="M59.198 20.254C59.198 20.254 59.198 20.2845 59.198 20.315" stroke-linecap="round" stroke-linejoin="round"/>
<path d="M59.198 20.2845C59.2148 20.2845 59.2285 20.2708 59.2285 20.254C59.2285 20.2371 59.2148 20.2235 59.198 20.2235C59.1811 20.2235 59.1675 20.2371 59.1675 20.254C59.1675 20.2708 59.1811 20.2845 59.198 20.2845Z" fill="black"/>
<path d="M59.198 20.254C59.2148 20.254 59.2285 20.2403 59.2285 20.2235C59.2285 20.2066 59.2148 20.193 59.198 20.193C59.1811 20.193 59.1675 20.2066 59.1675 20.2235C59.1675 20.2403 59.1811 20.254 59.198 20.254Z" fill="black"/>
<path d="M59.1064 20.1625C59.1064 20.1625 59.1675 20.193 59.1675 20.2235" stroke-linecap="round" stroke-linejoin="round"/>
<path d="M24.4431 1.48822C24.5041 1.48822 24.5347 1.48822 24.5652 1.54925" stroke-linecap="round" stroke-linejoin="round"/>
<path d="M24.26 1.4577C24.321 1.4577 24.3821 1.4577 24.4431 1.4577" stroke-linecap="round" stroke-linejoin="round"/>
<path d="M24.1685 1.4577H24.26" stroke-linecap="round" stroke-linejoin="round"/>
<path d="M24.1685 1.48822C24.1853 1.48822 24.199 1.47455 24.199 1.4577C24.199 1.44085 24.1853 1.42719 24.1685 1.42719C24.1516 1.42719 24.1379 1.44085 24.1379 1.4577C24.1379 1.47455 24.1516 1.48822 24.1685 1.48822Z" fill="black"/>
<path d="M24.1379 1.4577H24.0464" stroke-linecap="round" stroke-linejoin="round"/>
<path d="M24.0159 1.48822C24.0327 1.48822 24.0464 1.47455 24.0464 1.4577C24.0464 1.44085 24.0327 1.42719 24.0159 1.42719C23.999 1.42719 23.9854 1.44085 23.9854 1.4577C23.9854 1.47455 23.999 1.48822 24.0159 1.48822Z" fill="black"/>
<path d="M23.9548 1.51873C23.9717 1.51873 23.9853 1.50507 23.9853 1.48822C23.9853 1.47137 23.9717 1.4577 23.9548 1.4577C23.938 1.4577 23.9243 1.47137 23.9243 1.48822C23.9243 1.50507 23.938 1.51873 23.9548 1.51873Z" fill="black"/>
<path d="M1.92407 11.161C1.94092 11.161 1.95458 11.1473 1.95458 11.1305C1.95458 11.1136 1.94092 11.1 1.92407 11.1C1.90722 11.1 1.89355 11.1136 1.89355 11.1305C1.89355 11.1473 1.90722 11.161 1.92407 11.161Z" fill="black"/>
<path d="M1.86303 11.1915C1.87989 11.1915 1.89355 11.1779 1.89355 11.161C1.89355 11.1442 1.87989 11.1305 1.86303 11.1305C1.84618 11.1305 1.83252 11.1442 1.83252 11.161C1.83252 11.1779 1.84618 11.1915 1.86303 11.1915Z" fill="black"/>
<path d="M1.86303 11.4356C1.87989 11.4356 1.89355 11.4219 1.89355 11.4051C1.89355 11.3882 1.87989 11.3746 1.86303 11.3746C1.84618 11.3746 1.83252 11.3882 1.83252 11.4051C1.83252 11.4219 1.84618 11.4356 1.86303 11.4356Z" fill="black"/>
<path d="M36.7094 30.1709C36.6179 30.1709 36.5264 30.1404 36.4348 30.1099" stroke-linecap="round" stroke-linejoin="round"/>
<path d="M37.0451 30.1404C36.9536 30.1404 36.8315 30.1709 36.74 30.1404" stroke-linecap="round" stroke-linejoin="round"/>
<path d="M37.0757 30.1404C37.0925 30.1404 37.1062 30.1267 37.1062 30.1099C37.1062 30.093 37.0925 30.0793 37.0757 30.0793C37.0588 30.0793 37.0452 30.093 37.0452 30.1099C37.0452 30.1267 37.0588 30.1404 37.0757 30.1404Z" fill="black"/>
<path d="M55.5057 22.7561C55.2921 22.8476 55.109 22.9087 54.8954 22.9697C54.7429 23.0307 54.5598 23.0612 54.4072 23.0917" stroke-linecap="round" stroke-linejoin="round"/>
<path d="M45.4973 27.15L46.1991 26.8449" stroke-linecap="round" stroke-linejoin="round"/>
<path d="M40.5542 29.3165L41.195 29.0419" stroke-linecap="round" stroke-linejoin="round"/>
<path d="M37.3809 30.4455L37.5029 30.3845" stroke-linecap="round" stroke-linejoin="round"/>
<path d="M31.0034 27.9434L31.5221 28.218" stroke-linecap="round" stroke-linejoin="round"/>
<path d="M29.3862 26.7534C29.966 27.089 30.5152 27.4857 31.034 27.9129" stroke-linecap="round" stroke-linejoin="round"/>
<path d="M29.02 26.5703C29.1421 26.6313 29.2641 26.6924 29.3557 26.7534" stroke-linecap="round" stroke-linejoin="round"/>
<path d="M28.8979 26.5093L29.0505 26.5703" stroke-linecap="round" stroke-linejoin="round"/>
<path d="M28.2268 26.2346C28.4404 26.3262 28.654 26.4177 28.8676 26.5093" stroke-linecap="round" stroke-linejoin="round"/>
<path d="M27.7385 26.0211C27.9216 26.0821 28.0742 26.1431 28.2573 26.2041" stroke-linecap="round" stroke-linejoin="round"/>
<path d="M27.0369 25.7769L27.1894 25.838" stroke-linecap="round" stroke-linejoin="round"/>
<path d="M26.5791 25.5328L27.0063 25.777" stroke-linecap="round" stroke-linejoin="round"/>
<path d="M25.7856 24.8921L25.6636 24.8005" stroke-linecap="round" stroke-linejoin="round"/>
<path d="M25.5415 24.7395C25.572 24.7395 25.633 24.8005 25.6636 24.831" stroke-linecap="round" stroke-linejoin="round"/>
<path d="M25.4194 24.6479C25.4499 24.6479 25.511 24.709 25.5415 24.7395" stroke-linecap="round" stroke-linejoin="round"/>
<path d="M24.9924 24.4344C25.0093 24.4344 25.0229 24.4207 25.0229 24.4038C25.0229 24.387 25.0093 24.3733 24.9924 24.3733C24.9756 24.3733 24.9619 24.387 24.9619 24.4038C24.9619 24.4207 24.9756 24.4344 24.9924 24.4344Z" fill="black"/>
<path d="M24.8704 24.3428C24.8872 24.3428 24.9009 24.3292 24.9009 24.3123C24.9009 24.2955 24.8872 24.2818 24.8704 24.2818C24.8535 24.2818 24.8398 24.2955 24.8398 24.3123C24.8398 24.3292 24.8535 24.3428 24.8704 24.3428Z" fill="black"/>
<path d="M22.5513 23.3664L22.7344 23.4579" stroke-linecap="round" stroke-linejoin="round"/>
<path d="M22.5512 23.3664L22.124 23.1223" stroke-linecap="round" stroke-linejoin="round"/>
<path d="M22.002 23.0307L22.124 23.1223" stroke-linecap="round" stroke-linejoin="round"/>
<path d="M21.8494 22.9087C21.9104 22.9392 21.9409 23.0002 21.9714 23.0307" stroke-linecap="round" stroke-linejoin="round"/>
<path d="M20.9035 22.2069L20.6899 22.0848" stroke-linecap="round" stroke-linejoin="round"/>
<path d="M20.3848 21.9017C20.4763 21.9628 20.5679 21.9933 20.6594 22.0543" stroke-linecap="round" stroke-linejoin="round"/>
<path d="M20.3542 21.9017C20.3711 21.9017 20.3848 21.8881 20.3848 21.8712C20.3848 21.8544 20.3711 21.8407 20.3542 21.8407C20.3374 21.8407 20.3237 21.8544 20.3237 21.8712C20.3237 21.8881 20.3374 21.9017 20.3542 21.9017Z" fill="black"/>
<path d="M19.7744 21.5966C19.8354 21.5966 19.866 21.6576 19.927 21.6576" stroke-linecap="round" stroke-linejoin="round"/>
<path d="M18.9506 21.2609C18.6454 21.1694 18.3708 21.0473 18.0962 20.9253" stroke-linecap="round" stroke-linejoin="round"/>
<path d="M17.303 20.4371L17.6386 20.7117" stroke-linecap="round" stroke-linejoin="round"/>
<path d="M17.303 20.4371L17.1809 20.3456" stroke-linecap="round" stroke-linejoin="round"/>
<path d="M17.2114 20.3455L17.0894 20.254" stroke-linecap="round" stroke-linejoin="round"/>
<path d="M17.0893 20.254L16.9673 20.1625" stroke-linecap="round" stroke-linejoin="round"/>
<path d="M16.9673 20.1625L16.8452 20.0709" stroke-linecap="round" stroke-linejoin="round"/>
<path d="M16.479 19.8268C16.6011 19.9184 16.7536 20.0099 16.8452 20.0709" stroke-linecap="round" stroke-linejoin="round"/>
<path d="M16.418 19.7963C16.418 19.7963 16.418 19.7963 16.4485 19.7963" stroke-linecap="round" stroke-linejoin="round"/>
<path d="M14.6177 18.9114C14.7397 18.9419 14.8618 19.0029 14.9533 19.0335" stroke-linecap="round" stroke-linejoin="round"/>
<path d="M13.7634 18.6063L13.9465 18.6673" stroke-linecap="round" stroke-linejoin="round"/>
<path d="M13.3057 18.3622L13.7329 18.6063" stroke-linecap="round" stroke-linejoin="round"/>
<path d="M13.3056 18.3622L13.1531 18.2706" stroke-linecap="round" stroke-linejoin="round"/>
<path d="M11.8716 17.3247C12.3293 17.5993 12.7565 17.935 13.1837 18.3011" stroke-linecap="round" stroke-linejoin="round"/>
<path d="M11.719 17.2332C11.78 17.2332 11.8105 17.2942 11.8716 17.3247" stroke-linecap="round" stroke-linejoin="round"/>
<path d="M11.719 17.2332L11.5969 17.1416" stroke-linecap="round" stroke-linejoin="round"/>
<path d="M11.5664 17.1721C11.5833 17.1721 11.5969 17.1585 11.5969 17.1416C11.5969 17.1248 11.5833 17.1111 11.5664 17.1111C11.5496 17.1111 11.5359 17.1248 11.5359 17.1416C11.5359 17.1585 11.5496 17.1721 11.5664 17.1721Z" fill="black"/>
<path d="M9.27783 16.1957L9.46091 16.2567" stroke-linecap="round" stroke-linejoin="round"/>
<path d="M3.48047 12.8392C3.7856 13.0528 4.06023 13.2969 4.33485 13.541" stroke-linecap="round" stroke-linejoin="round"/>
<path d="M3.05322 12.5646C3.11425 12.5646 3.14476 12.6256 3.17527 12.6562C3.26682 12.7172 3.35835 12.7782 3.44989 12.8392" stroke-linecap="round" stroke-linejoin="round"/>
<path d="M2.01562 12.0154C2.38179 12.1679 2.71743 12.351 3.05308 12.5646" stroke-linecap="round" stroke-linejoin="round"/>
<path d="M0.85619 11.4661C0.795163 11.4356 0.764648 11.3746 0.764648 11.2831" stroke-linecap="round" stroke-linejoin="round"/>
<path d="M0.734124 11.3136C0.750976 11.3136 0.764639 11.2999 0.764639 11.283C0.764639 11.2662 0.750976 11.2525 0.734124 11.2525C0.717272 11.2525 0.703613 11.2662 0.703613 11.283C0.703613 11.2999 0.717272 11.3136 0.734124 11.3136Z" fill="black"/>
<path d="M0.734131 11.283C0.734131 11.161 0.795161 11.0694 0.856188 11.0084" stroke-linecap="round" stroke-linejoin="round"/>
<path d="M0.978253 10.9169C0.94774 10.9169 0.917228 10.9474 0.856201 10.9779" stroke-linecap="round" stroke-linejoin="round"/>
<path d="M0.978265 10.9474C0.995117 10.9474 1.00878 10.9337 1.00878 10.9169C1.00878 10.9 0.995117 10.8864 0.978265 10.8864C0.961412 10.8864 0.947754 10.9 0.947754 10.9169C0.947754 10.9337 0.961412 10.9474 0.978265 10.9474Z" fill="black"/>
<path d="M0.978271 10.9169L1.16135 10.8253" stroke-linecap="round" stroke-linejoin="round"/>
<path d="M5.00608 9.08606C3.84657 9.90992 2.565 10.4897 1.19189 10.8253" stroke-linecap="round" stroke-linejoin="round"/>
<path d="M9.94913 6.91962C8.66756 7.83502 7.20292 8.44529 5.64673 8.81146" stroke-linecap="round" stroke-linejoin="round"/>
<path d="M10.4985 6.67551L9.94922 6.91961" stroke-linecap="round" stroke-linejoin="round"/>
<path d="M10.4985 6.6755C10.6511 6.61447 10.8342 6.55344 10.9868 6.52293C11.1393 6.49242 11.2919 6.43139 11.4445 6.40088" stroke-linecap="round" stroke-linejoin="round"/>
<path d="M11.78 6.27884C11.6579 6.30935 11.5359 6.37038 11.4138 6.40089" stroke-linecap="round" stroke-linejoin="round"/>
<path d="M14.1601 5.24136C13.4278 5.69907 12.6039 6.06523 11.78 6.30934" stroke-linecap="round" stroke-linejoin="round"/>
<path d="M14.5568 4.96674C14.4348 5.05828 14.2822 5.14982 14.1602 5.21085" stroke-linecap="round" stroke-linejoin="round"/>
<path d="M14.5566 4.96676C14.6787 4.87522 14.8007 4.78368 14.9533 4.72266" stroke-linecap="round" stroke-linejoin="round"/>
<path d="M15.5331 4.47855L14.9534 4.72266" stroke-linecap="round" stroke-linejoin="round"/>
<path d="M19.0118 3.13596C18.6762 3.31904 18.3405 3.50212 17.9438 3.6852" stroke-linecap="round" stroke-linejoin="round"/>
<path d="M19.4084 2.89185C19.2863 2.98339 19.1338 3.07492 19.0117 3.13595" stroke-linecap="round" stroke-linejoin="round"/>
<path d="M19.4084 2.89183C19.5 2.83081 19.561 2.76978 19.6526 2.70875C19.7441 2.64772 19.8356 2.5867 19.9272 2.55618" stroke-linecap="round" stroke-linejoin="round"/>
<path d="M24.6261 1C24.5041 1 24.4126 1 24.2905 1C24.199 1 24.0769 1 23.9854 1.06103C23.8023 1.09154 23.6497 1.15257 23.4666 1.2136C23.1615 1.33565 22.8869 1.48822 22.5512 1.64078C22.1851 1.79335 21.8799 1.8849 21.5138 2.00695C21.0866 2.129 20.7204 2.19002 20.4153 2.34259" stroke-linecap="round" stroke-linejoin="round"/>
<path d="M24.6262 1C24.6872 1 24.7788 1 24.8398 1C24.9313 1 25.0229 1 25.1144 1.03052" stroke-linecap="round" stroke-linejoin="round"/>
<path d="M25.1145 1.06104C25.5722 1.30514 25.9994 1.57976 26.3961 1.94592" stroke-linecap="round" stroke-linejoin="round"/>
<path d="M27.3724 2.52567C27.0368 2.34259 26.7011 2.15951 26.396 1.91541" stroke-linecap="round" stroke-linejoin="round"/>
<path d="M27.3723 2.52567C27.4333 2.52567 27.4639 2.5867 27.5249 2.61721" stroke-linecap="round" stroke-linejoin="round"/>
<path d="M30.9424 4.41751C30.6983 4.23443 30.4847 4.08186 30.2711 3.89878C30.088 3.74621 29.9355 3.62416 29.4778 3.41056C29.1726 3.28851 28.9285 3.22749 28.4708 3.0444C27.9521 2.83081 27.6164 2.67824 27.5249 2.61722" stroke-linecap="round" stroke-linejoin="round"/>
<path d="M30.9424 4.41752L31.278 4.26495" stroke-linecap="round" stroke-linejoin="round"/>
<path d="M32.041 5.05829C32.041 5.05829 32.102 5.05828 32.1326 5.08879" stroke-linecap="round" stroke-linejoin="round"/>
<path d="M33.6581 5.69908C33.5361 5.66856 33.414 5.60754 33.292 5.57703" stroke-linecap="round" stroke-linejoin="round"/>
<path d="M33.6582 5.69907C33.7803 5.72958 33.8718 5.79061 33.9939 5.82113" stroke-linecap="round" stroke-linejoin="round"/>
<path d="M34.4211 6.06524L33.9634 5.82114" stroke-linecap="round" stroke-linejoin="round"/>
<path d="M34.4209 6.06525C34.5124 6.12627 34.604 6.1873 34.665 6.24833" stroke-linecap="round" stroke-linejoin="round"/>
<path d="M35.0007 6.52294C34.8786 6.4314 34.7871 6.33986 34.665 6.24832" stroke-linecap="round" stroke-linejoin="round"/>
<path d="M35.1228 6.61449C35.0923 6.61449 35.0618 6.55346 35.0007 6.52295" stroke-linecap="round" stroke-linejoin="round"/>
<path d="M35.3669 6.79755C35.2754 6.73653 35.2143 6.6755 35.1228 6.61447" stroke-linecap="round" stroke-linejoin="round"/>
<path d="M35.3669 6.82806C35.3838 6.82806 35.3975 6.8144 35.3975 6.79754C35.3975 6.78069 35.3838 6.76703 35.3669 6.76703C35.3501 6.76703 35.3364 6.78069 35.3364 6.79754C35.3364 6.8144 35.3501 6.82806 35.3669 6.82806Z" fill="black"/>
<path d="M35.3975 6.82807L35.7331 6.67551" stroke-linecap="round" stroke-linejoin="round"/>
<path d="M36.5264 7.46885L36.8925 7.31628" stroke-linecap="round" stroke-linejoin="round"/>
<path d="M36.6179 7.52988H36.5264" stroke-linecap="round" stroke-linejoin="round"/>
<path d="M38.3877 8.20117L38.9675 8.50631" stroke-linecap="round" stroke-linejoin="round"/>
<path d="M41.4086 10.0625C40.5237 9.69634 39.6999 9.17761 38.9675 8.50632" stroke-linecap="round" stroke-linejoin="round"/>
<path d="M41.7441 10.2151C41.7136 10.2151 41.6831 10.2151 41.6526 10.1846C41.561 10.154 41.5 10.1235 41.4084 10.093" stroke-linecap="round" stroke-linejoin="round"/>
<path d="M41.7441 10.2151C42.1103 10.3677 42.507 10.4897 42.8731 10.6423" stroke-linecap="round" stroke-linejoin="round"/>
<path d="M43.392 10.9169L42.9038 10.6423" stroke-linecap="round" stroke-linejoin="round"/>
<path d="M44.9786 12.0459C44.4904 11.7713 44.0327 11.4661 43.6055 11.1" stroke-linecap="round" stroke-linejoin="round"/>
<path d="M44.9788 12.0459L45.0703 12.1069" stroke-linecap="round" stroke-linejoin="round"/>
<path d="M45.0703 12.1374C45.0872 12.1374 45.1008 12.1237 45.1008 12.1069C45.1008 12.09 45.0872 12.0764 45.0703 12.0764C45.0535 12.0764 45.0398 12.09 45.0398 12.1069C45.0398 12.1237 45.0535 12.1374 45.0703 12.1374Z" fill="black"/>
<path d="M46.0467 12.5646C45.7111 12.4426 45.406 12.29 45.1008 12.1374" stroke-linecap="round" stroke-linejoin="round"/>
<path d="M46.5043 12.7477C46.3518 12.6867 46.1992 12.6256 46.0466 12.5646" stroke-linecap="round" stroke-linejoin="round"/>
<path d="M47.2672 13.0223C47.0231 12.9308 46.7485 12.8392 46.5044 12.7477" stroke-linecap="round" stroke-linejoin="round"/>
<path d="M48.2741 13.6936C48.1826 13.6326 48.091 13.541 47.9995 13.4495C47.9079 13.358 47.8164 13.2969 47.6943 13.2359" stroke-linecap="round" stroke-linejoin="round"/>
<path d="M48.3047 13.7241C48.3215 13.7241 48.3352 13.7105 48.3352 13.6936C48.3352 13.6767 48.3215 13.6631 48.3047 13.6631C48.2878 13.6631 48.2742 13.6767 48.2742 13.6936C48.2742 13.7105 48.2878 13.7241 48.3047 13.7241Z" fill="black"/>
<path d="M49.342 14.3954C49.342 14.3954 49.342 14.3954 49.3725 14.3954C49.3725 14.3954 49.4031 14.3954 49.4336 14.4259" stroke-linecap="round" stroke-linejoin="round"/>
<path d="M49.5556 14.5175C49.5251 14.5175 49.4946 14.487 49.4336 14.4565" stroke-linecap="round" stroke-linejoin="round"/>
<path d="M49.5557 14.548C49.5725 14.548 49.5862 14.5343 49.5862 14.5175C49.5862 14.5006 49.5725 14.487 49.5557 14.487C49.5388 14.487 49.5251 14.5006 49.5251 14.5175C49.5251 14.5343 49.5388 14.548 49.5557 14.548Z" fill="black"/>
<path d="M52.7595 16.1042C52.2408 15.616 51.6 15.2803 50.8982 15.0972" stroke-linecap="round" stroke-linejoin="round"/>
<path d="M52.7595 16.1347C52.7764 16.1347 52.79 16.121 52.79 16.1042C52.79 16.0873 52.7764 16.0737 52.7595 16.0737C52.7427 16.0737 52.729 16.0873 52.729 16.1042C52.729 16.121 52.7427 16.1347 52.7595 16.1347Z" fill="black"/>
<path d="M52.7595 16.1347L53.0036 16.0126" stroke-linecap="round" stroke-linejoin="round"/>
<path d="M53.9192 16.867L53.7971 16.806" stroke-linecap="round" stroke-linejoin="round"/>
<path d="M60.205 20.132C60.205 20.1015 60.144 20.0709 60.1134 20.0404C60.0829 20.0404 60.0219 19.9794 59.9914 19.9489C59.8998 19.8879 59.7778 19.8573 59.6557 19.8268C59.4421 19.7658 59.2286 19.6743 58.9539 19.5827C58.6793 19.4607 58.3437 19.3081 57.8554 18.9724C57.0011 18.3927 56.5739 17.935 55.8721 17.6909" stroke-linecap="round" stroke-linejoin="round"/>
<path d="M60.2048 20.132L60.2964 20.315" stroke-linecap="round" stroke-linejoin="round"/>
<path d="M59.7166 20.8032C59.7471 20.8032 59.7776 20.8032 59.8081 20.8032C59.8386 20.8032 59.8691 20.8032 59.9301 20.7727" stroke-linecap="round" stroke-linejoin="round"/>
<path d="M56.3601 22.2679C56.4822 22.1763 56.6347 22.0848 56.7568 22.0238" stroke-linecap="round" stroke-linejoin="round"/>
<path d="M55.9939 22.5425C56.116 22.451 56.238 22.3594 56.3906 22.2679" stroke-linecap="round" stroke-linejoin="round"/>
<path d="M4.85344 13.8157L4.33472 13.541" stroke-linecap="round" stroke-linejoin="round"/>
<path d="M17.6387 20.7117L18.0659 20.9558" stroke-linecap="round" stroke-linejoin="round"/>
<path d="M31.0034 54.307L31.5527 54.6122" stroke-linecap="round" stroke-linejoin="round"/>
<path d="M9.27801 42.5594L8.78979 42.3152" stroke-linecap="round" stroke-linejoin="round"/>
<path d="M8.82031 15.9516L9.27801 16.1957" stroke-linecap="round" stroke-linejoin="round"/>
<path d="M16.0823 24.1292L16.4179 23.9767" stroke-linecap="round" stroke-linejoin="round"/>
<path d="M16.418 23.9766V19.7963" stroke-linecap="round" stroke-linejoin="round"/>
<path d="M21.8493 27.089L21.6968 27.1501" stroke-linecap="round" stroke-linejoin="round"/>
<path d="M21.8494 27.089C21.8494 25.6854 21.8494 24.3123 21.8494 22.9087" stroke-linecap="round" stroke-linejoin="round"/>
<path d="M16.9673 46.5261L17.0893 46.6177" stroke-linecap="round" stroke-linejoin="round"/>
<path d="M55.9941 48.9367L55.5059 49.1503" stroke-linecap="round" stroke-linejoin="round"/>
<path d="M55.5059 22.7561L55.9941 22.5425" stroke-linecap="round" stroke-linejoin="round"/>
<path d="M19.9578 2.55619L20.446 2.34259" stroke-linecap="round" stroke-linejoin="round"/>
<path d="M5.0061 9.08608L5.6774 8.81146" stroke-linecap="round" stroke-linejoin="round"/>
<path d="M59.198 20.254V20.4066" stroke-linecap="round" stroke-linejoin="round"/>
<path d="M1.83252 11.1915C1.83252 11.2525 1.83252 11.3136 1.83252 11.3746" stroke-linecap="round" stroke-linejoin="round"/>
<path d="M54.6208 16.6229C54.6208 16.6229 54.6209 16.6229 54.6514 16.6229" stroke-linecap="round" stroke-linejoin="round"/>
<path d="M53.7971 16.806L54.1938 16.6534" stroke-linecap="round" stroke-linejoin="round"/>
<path d="M53.2173 15.3719C53.3699 15.0667 53.736 14.9142 54.0717 15.0057" stroke-linecap="round" stroke-linejoin="round"/>
<path d="M53.2173 15.3719C53.1562 15.4634 53.1257 15.5244 53.0952 15.616" stroke-linecap="round" stroke-linejoin="round"/>
<path d="M53.0952 15.6465C53.0952 15.7075 53.0647 15.799 53.0342 15.8601C53.0342 15.9211 53.0342 15.9821 53.0342 16.0431" stroke-linecap="round" stroke-linejoin="round"/>
<path d="M50.4712 14.0903C50.4101 14.1818 50.2881 14.2428 50.1965 14.2123" stroke-linecap="round" stroke-linejoin="round"/>
<path d="M49.342 14.3954L49.7387 14.2429" stroke-linecap="round" stroke-linejoin="round"/>
<path d="M48.5488 13.6021C48.5488 13.541 48.5488 13.4495 48.5793 13.3274C48.5793 13.2664 48.6404 13.1749 48.7014 13.0528C48.7624 12.9613 48.8235 12.8697 48.8845 12.7782C48.9455 12.7172 49.037 12.6561 49.1286 12.5951C49.1896 12.5951 49.2811 12.5341 49.3727 12.5341C49.4032 12.5341 49.4337 12.5341 49.4642 12.5341" stroke-linecap="round" stroke-linejoin="round"/>
<path d="M48.3047 13.7241L48.5488 13.6326" stroke-linecap="round" stroke-linejoin="round"/>
<path d="M31.4612 3.62418C31.6137 3.31904 31.9799 3.16647 32.3156 3.25801" stroke-linecap="round" stroke-linejoin="round"/>
<path d="M31.4612 3.62415C31.4001 3.71569 31.3696 3.77671 31.3391 3.86825" stroke-linecap="round" stroke-linejoin="round"/>
<path d="M31.3391 3.89877C31.3391 3.9598 31.3086 4.05134 31.2781 4.11237C31.2781 4.1734 31.2781 4.23443 31.2781 4.29545" stroke-linecap="round" stroke-linejoin="round"/>
<path d="M32.9868 4.387C33.0478 4.32597 33.1394 4.29545 33.2309 4.32597" stroke-linecap="round" stroke-linejoin="round"/>
<path d="M32.8342 4.81418C32.8342 4.66162 32.8647 4.50905 32.9868 4.41751" stroke-linecap="round" stroke-linejoin="round"/>
<path d="M32.8342 4.81418C32.8342 4.87521 32.8647 4.90572 32.9258 4.90572" stroke-linecap="round" stroke-linejoin="round"/>
<path d="M32.041 5.0583L32.4072 4.90573" stroke-linecap="round" stroke-linejoin="round"/>
<path d="M32.4985 4.50906C32.529 4.41752 32.5901 4.32598 32.6206 4.26495" stroke-linecap="round" stroke-linejoin="round"/>
<path d="M35.7331 6.67552C35.7026 6.12628 36.0993 5.66857 36.6485 5.63806" stroke-linecap="round" stroke-linejoin="round"/>
<path d="M37.6555 7.16373C37.5945 7.25527 37.4724 7.31629 37.3809 7.28578" stroke-linecap="round" stroke-linejoin="round"/>
<path d="M15.6858 23.3664V22.2679" stroke-linecap="round" stroke-linejoin="round"/>
<path d="M20.4153 26.4177V23.5495" stroke-linecap="round" stroke-linejoin="round"/>
<path d="M19.2559 25.777V22.9087" stroke-linecap="round" stroke-linejoin="round"/>
<path d="M13.6414 22.7256V19.8573" stroke-linecap="round" stroke-linejoin="round"/>
<path d="M13.9465 45.0614L13.7634 45.0004" stroke-linecap="round" stroke-linejoin="round"/>
<path d="M24.9924 24.4038L24.9009 24.3428" stroke-linecap="round" stroke-linejoin="round"/>
<path d="M54.2549 16.2567C54.2854 16.1652 54.3464 16.0737 54.3769 16.0126" stroke-linecap="round" stroke-linejoin="round"/>
<path d="M47.6943 13.2359L47.2671 12.9918" stroke-linecap="round" stroke-linejoin="round"/>
<path d="M20.6594 22.0543C20.6594 22.1458 20.6594 22.2069 20.6594 22.2984" stroke-linecap="round" stroke-linejoin="round"/>
<path d="M14.9839 19.064C15.0754 19.0945 15.167 19.125 15.2585 19.186" stroke-linecap="round" stroke-linejoin="round"/>
<path d="M4.33485 39.9047C4.06023 39.6606 3.7856 39.447 3.48047 39.2029" stroke-linecap="round" stroke-linejoin="round"/>
<path d="M0.734131 11.2831C0.734131 15.1277 0.734131 18.9419 0.734131 22.7866" stroke-linecap="round" stroke-linejoin="round"/>
<path d="M0.734131 37.6772C0.734131 28.8893 0.734131 20.1014 0.734131 11.2831" stroke-linecap="round" stroke-linejoin="round"/>
<path d="M43.6054 11.1L43.3918 10.9169" stroke-linecap="round" stroke-linejoin="round"/>
<path d="M1.80225 11.2525V11.3136" stroke-linecap="round" stroke-linejoin="round"/>
<path d="M20.6595 26.8754C20.5985 26.8449 20.5375 26.8144 20.4764 26.7839C20.4459 26.7839 20.4154 26.7534 20.3849 26.7229C20.1103 26.5703 19.8357 26.4177 19.5305 26.2652" stroke-linecap="round" stroke-linejoin="round"/>
<path d="M15.0145 23.8546C14.7094 23.702 14.4347 23.5495 14.0991 23.3664C14.0076 23.3359 13.916 23.2748 13.8245 23.2138" stroke-linecap="round" stroke-linejoin="round"/>
</svg>
