<svg width="27" height="35" viewBox="0 0 27 35" fill="none" xmlns="http://www.w3.org/2000/svg" stroke="rgba(0,0,0,.64)" stroke-width="0.5" >
<path d="M20.3079 15.9784C20.3079 14.7301 20.98 13.1458 21.9882 12.1376C22.9964 11.1294 24.2926 10.7454 25.1088 11.2255" stroke-linecap="round" stroke-linejoin="round"/>
<path d="M21.9883 24.6201L24.4848 25.9643" stroke-linecap="round" stroke-linejoin="round"/>
<path d="M21.9883 22.6037L26.1651 24.8601" stroke-linecap="round" stroke-linejoin="round"/>
<path d="M24.0525 13.2419C24.5806 13.4819 24.6286 14.4901 24.1965 15.2583C23.7644 16.0264 22.9003 16.5545 22.4202 16.2184" stroke-linecap="round" stroke-linejoin="round"/>
<path d="M22.4203 16.2184C22.0842 16.0264 21.9402 15.6423 21.9402 15.2582" stroke-linecap="round" stroke-linejoin="round"/>
<path d="M25.1087 11.2735C26.0689 11.7056 26.405 13.2899 25.9249 14.8262C25.4448 16.3625 24.1966 17.8988 22.9963 18.2348" stroke-linecap="round" stroke-linejoin="round"/>
<path d="M5.13693 0.471407C4.32077 -0.00868561 3.02452 0.375385 2.01633 1.38358C1.00813 2.39177 0.287996 3.97608 0.336006 5.22432" stroke-linecap="round" stroke-linejoin="round"/>
<path d="M5.13696 0.471405L25.1088 11.2735" stroke-linecap="round" stroke-linejoin="round"/>
<path d="M22.4203 27.6446C22.0842 27.4526 21.9402 27.0685 21.9402 26.6844" stroke-linecap="round" stroke-linejoin="round"/>
<path d="M20.5959 33.9338C20.4039 33.7898 20.2599 33.5498 20.3079 33.3097" stroke-linecap="round" stroke-linejoin="round"/>
<path d="M20.5959 33.9339L0.624023 23.1318" stroke-linecap="round" stroke-linejoin="round"/>
<path d="M0.335938 22.5557V5.22433" stroke-linecap="round" stroke-linejoin="round"/>
<path d="M26.165 24.9081C26.117 26.7805 25.1088 28.4608 23.5725 29.469" stroke-linecap="round" stroke-linejoin="round"/>
<path d="M21.9883 32.2055C21.9883 31.1013 22.6124 30.0451 23.5726 29.469" stroke-linecap="round" stroke-linejoin="round"/>
<path d="M21.9883 32.2055V32.6376" stroke-linecap="round" stroke-linejoin="round"/>
<path d="M21.9883 19.8191C21.9883 19.147 22.4204 18.5229 23.0445 18.2348" stroke-linecap="round" stroke-linejoin="round"/>
<path d="M24.4846 25.9643C24.3886 26.4924 24.0526 27.0685 23.6685 27.4046C23.2844 27.7407 22.8043 27.8367 22.4683 27.6446" stroke-linecap="round" stroke-linejoin="round"/>
<path d="M24.4846 25.9643L26.1649 24.8601" stroke-linecap="round" stroke-linejoin="round"/>
<path d="M21.9883 15.2583C21.9883 14.7302 22.2763 14.01 22.7084 13.5779C23.1405 13.1459 23.7166 13.0018 24.0527 13.1939" stroke-linecap="round" stroke-linejoin="round"/>
<path d="M0.335938 22.5557C0.335938 22.7957 0.431959 23.0358 0.623996 23.1798" stroke-linecap="round" stroke-linejoin="round"/>
<path d="M21.9881 32.5896C21.9881 32.9257 21.796 33.4058 21.508 33.6938C21.2199 33.9819 20.8358 34.0779 20.6438 33.9339" stroke-linecap="round" stroke-linejoin="round"/>
<path d="M21.9883 19.8191V26.6845" stroke-linecap="round" stroke-linejoin="round"/>
<path d="M20.3079 33.3577V16.0264" stroke-linecap="round" stroke-linejoin="round"/>
</svg>
