<svg width="94" height="67" viewBox="0 0 94 67" fill="none" xmlns="http://www.w3.org/2000/svg" stroke="rgba(0,0,0,.64)" stroke-width="0.5" >
<g clip-path="url(#clip0_1992_1027)">
<path d="M30.4866 24.8056C30.5485 24.8056 30.6105 24.9302 30.6105 24.9925" stroke-linecap="round" stroke-linejoin="round"/>
<path d="M44.3666 18.573C44.1187 18.6977 43.8089 18.6977 43.561 18.573" stroke-linecap="round" stroke-linejoin="round"/>
<path d="M0.185941 18.1991C0.123976 18.1991 0.0620117 18.0744 0.0620117 18.0121" stroke-linecap="round" stroke-linejoin="round"/>
<path d="M56.7594 53.9116C56.5115 54.0363 56.2017 54.0363 55.9539 53.9116" stroke-linecap="round" stroke-linejoin="round"/>
<path d="M56.0159 66.813C56.2637 66.9377 56.5735 66.9377 56.8214 66.813" stroke-linecap="round" stroke-linejoin="round"/>
<path d="M93.8142 35.8995C93.8762 35.8995 93.9381 36.0242 93.9381 36.0865" stroke-linecap="round" stroke-linejoin="round"/>
<path d="M93.7522 49.2372C93.8761 49.2372 93.9381 49.1126 93.9381 48.9879" stroke-linecap="round" stroke-linejoin="round"/>
<path d="M37.2407 0.124647C37.4886 -4.34034e-06 37.7984 -4.34034e-06 38.0463 0.124647" stroke-linecap="round" stroke-linejoin="round"/>
<path d="M25.5913 18.947L33.2749 23.8707" stroke-linecap="round" stroke-linejoin="round"/>
<path d="M55.7679 24.9302L30.6724 36.8967" stroke-linecap="round" stroke-linejoin="round"/>
<path d="M74.4193 36.8344L49.3237 48.8009" stroke-linecap="round" stroke-linejoin="round"/>
<path d="M74.4192 25.7405C74.667 25.6158 74.9769 25.6158 75.2247 25.7405" stroke-linecap="round" stroke-linejoin="round"/>
<path d="M74.4193 36.8344C74.6671 36.7098 74.9769 36.7098 75.2248 36.8344V25.7405L73.8616 24.8679" stroke-linecap="round" stroke-linejoin="round"/>
<path d="M73.8616 24.9302C73.9235 24.9302 73.9855 25.0549 73.9855 25.1172" stroke-linecap="round" stroke-linejoin="round"/>
<path d="M55.7681 13.8363C56.0159 13.7116 56.3257 13.7116 56.5736 13.8363" stroke-linecap="round" stroke-linejoin="round"/>
<path d="M56.5734 24.8056V13.8986L55.2102 13.026" stroke-linecap="round" stroke-linejoin="round"/>
<path d="M55.2102 12.9637C55.2722 12.9637 55.3341 13.0884 55.3341 13.1507" stroke-linecap="round" stroke-linejoin="round"/>
<path d="M26.2729 7.47908C26.2109 7.47908 26.1489 7.35442 26.1489 7.2921" stroke-linecap="round" stroke-linejoin="round"/>
<path d="M24.7856 7.79069C25.0335 7.66604 25.3433 7.66604 25.5912 7.79069" stroke-linecap="round" stroke-linejoin="round"/>
<path d="M13.942 13.4C13.8801 13.4 13.8181 13.2754 13.8181 13.213" stroke-linecap="round" stroke-linejoin="round"/>
<path d="M12.3928 13.7116C12.6407 13.587 12.9505 13.587 13.1984 13.7116" stroke-linecap="round" stroke-linejoin="round"/>
<path d="M37.1787 0.872559L1.61108 17.8251" stroke-linecap="round" stroke-linejoin="round"/>
<path d="M75.1628 36.8967L81.917 41.2595" stroke-linecap="round" stroke-linejoin="round"/>
<path d="M92.4508 35.8372L37.9221 0.934891" stroke-linecap="round" stroke-linejoin="round"/>
<path d="M56.5736 24.9926C56.3257 24.8679 56.0159 24.8679 55.7681 24.9926" stroke-linecap="round" stroke-linejoin="round"/>
<path d="M37.9222 13.026C37.6744 12.9014 37.3646 12.9014 37.1167 13.026" stroke-linecap="round" stroke-linejoin="round"/>
<path d="M37.1787 13.026L35.9395 13.6493" stroke-linecap="round" stroke-linejoin="round"/>
<path d="M0.247803 17.7628L37.2406 0.124649" stroke-linecap="round" stroke-linejoin="round"/>
<path d="M0.185791 31.1628L55.9538 66.8754" stroke-linecap="round" stroke-linejoin="round"/>
<path d="M93.752 49.2372L56.7593 66.8754" stroke-linecap="round" stroke-linejoin="round"/>
<path d="M93.8141 35.8995L38.0461 0.186981" stroke-linecap="round" stroke-linejoin="round"/>
<path d="M1.54922 18.2614C1.48726 18.2614 1.42529 18.1367 1.42529 18.0744" stroke-linecap="round" stroke-linejoin="round"/>
<path d="M37.1787 0.872556C37.4266 0.747905 37.7364 0.747905 37.9842 0.872556" stroke-linecap="round" stroke-linejoin="round"/>
<path d="M92.4509 35.8372C92.5129 35.8372 92.5749 35.9619 92.5749 36.0242" stroke-linecap="round" stroke-linejoin="round"/>
<path d="M56.8834 53.1637C56.6356 53.2884 56.3257 53.2884 56.0779 53.1637" stroke-linecap="round" stroke-linejoin="round"/>
<path d="M43.0033 19.0716C43.0033 19.1963 42.9413 19.2586 42.8174 19.3209" stroke-linecap="round" stroke-linejoin="round"/>
<path d="M55.3343 13.213C55.3343 13.3377 55.2724 13.4 55.1484 13.4623" stroke-linecap="round" stroke-linejoin="round"/>
<path d="M30.6105 24.9926C30.6105 25.1172 30.5485 25.1795 30.4246 25.2419" stroke-linecap="round" stroke-linejoin="round"/>
<path d="M13.8181 13.1507C13.8181 13.026 13.8801 12.9637 14.004 12.9014" stroke-linecap="round" stroke-linejoin="round"/>
<path d="M26.1489 7.29209C26.1489 7.16744 26.2109 7.10511 26.3348 7.04279" stroke-linecap="round" stroke-linejoin="round"/>
<path d="M73.9855 25.1172C73.9855 25.2419 73.9235 25.3042 73.7996 25.3665" stroke-linecap="round" stroke-linejoin="round"/>
<path d="M1.42529 18.0744C1.42529 17.9498 1.48726 17.8874 1.61119 17.8251" stroke-linecap="round" stroke-linejoin="round"/>
<path d="M92.5748 36.0242C92.5748 36.1488 92.5128 36.2112 92.3889 36.2735" stroke-linecap="round" stroke-linejoin="round"/>
<path d="M0.0620117 30.9135V18.0121" stroke-linecap="round" stroke-linejoin="round"/>
<path d="M0.0620117 30.9135C0.0620117 30.9758 0.0620117 31.0381 0.185941 31.1005" stroke-linecap="round" stroke-linejoin="round"/>
<path d="M0.0620117 18.0121C0.0620117 17.8874 0.123976 17.8251 0.247905 17.7628" stroke-linecap="round" stroke-linejoin="round"/>
<path d="M93.938 36.0865V48.9879" stroke-linecap="round" stroke-linejoin="round"/>
<path d="M93.9381 36.0865C93.9381 36.2112 93.8761 36.2735 93.7522 36.3358" stroke-linecap="round" stroke-linejoin="round"/>
<path d="M12.083 24.9925L12.4548 24.8056" stroke-linecap="round" stroke-linejoin="round"/>
<path d="M23.5464 19.5079L24.7857 18.8846" stroke-linecap="round" stroke-linejoin="round"/>
<path d="M64.2571 29.854L56.5735 24.9302" stroke-linecap="round" stroke-linejoin="round"/>
<path d="M20.8821 29.7293L13.1985 24.8056" stroke-linecap="round" stroke-linejoin="round"/>
<path d="M30.4866 24.8056L13.1985 13.774" stroke-linecap="round" stroke-linejoin="round"/>
<path d="M31.23 24.4316L13.9419 13.4" stroke-linecap="round" stroke-linejoin="round"/>
<path d="M42.8174 18.8847L25.5293 7.85303" stroke-linecap="round" stroke-linejoin="round"/>
<path d="M43.561 18.5107L26.2729 7.47906" stroke-linecap="round" stroke-linejoin="round"/>
<path d="M31.9736 24.4939L42.7554 19.3209" stroke-linecap="round" stroke-linejoin="round"/>
<path d="M20.0764 30.1033L30.3625 25.1795" stroke-linecap="round" stroke-linejoin="round"/>
<path d="M20.7581 30.5395L55.8299 13.8363" stroke-linecap="round" stroke-linejoin="round"/>
<path d="M38.7278 42.0698L73.7996 25.3665" stroke-linecap="round" stroke-linejoin="round"/>
<path d="M39.3474 42.4437L74.4193 25.7405" stroke-linecap="round" stroke-linejoin="round"/>
<path d="M55.1483 13.4L44.3665 18.573" stroke-linecap="round" stroke-linejoin="round"/>
<path d="M25.5912 18.947C25.3433 18.8223 25.0335 18.8223 24.7856 18.947V7.79069L26.3348 7.04279" stroke-linecap="round" stroke-linejoin="round"/>
<path d="M14.0039 12.9637L12.4548 13.7116V24.8056" stroke-linecap="round" stroke-linejoin="round"/>
<path d="M45.6057 17.9498L37.9221 13.026" stroke-linecap="round" stroke-linejoin="round"/>
<path d="M56.0777 53.1637L1.54907 18.2614" stroke-linecap="round" stroke-linejoin="round"/>
<path d="M13.1984 24.8056C12.9505 24.6809 12.6407 24.6809 12.3928 24.8056" stroke-linecap="round" stroke-linejoin="round"/>
<path d="M56.0157 53.9116L0.185791 18.1991" stroke-linecap="round" stroke-linejoin="round"/>
<path d="M56.7593 53.9116L93.752 36.2735" stroke-linecap="round" stroke-linejoin="round"/>
<path d="M92.3889 36.2735L56.8833 53.226" stroke-linecap="round" stroke-linejoin="round"/>
<path d="M31.9737 24.494C31.7259 24.6186 31.4161 24.6186 31.1682 24.494" stroke-linecap="round" stroke-linejoin="round"/>
<path d="M42.8174 18.8846C42.8793 18.8846 42.9413 19.0093 42.9413 19.0716" stroke-linecap="round" stroke-linejoin="round"/>
</g>
<defs>
<clipPath id="clip0_1992_1027">
<rect width="94" height="67" fill="white"/>
</clipPath>
</defs>
</svg>
