<?xml version="1.0" encoding="UTF-8"?>
<svg id="_レイヤー_1" data-name="レイヤー_1" xmlns="http://www.w3.org/2000/svg" version="1.1" viewBox="0 0 151.7 107.5">
  <!-- Generator: Adobe Illustrator 29.0.1, SVG Export Plug-In . SVG Version: 2.1.0 Build 192)  -->
  <defs>
    <style>
      .st0 {
        fill: none;
        stroke: #000;
        stroke-linecap: round;
        stroke-linejoin: round;
        stroke-width: .2px;
      }
    </style>
  </defs>
  <path class="st0" d="M49.2,39.8c.1,0,.2.2.2.3"/>
  <path class="st0" d="M71.6,29.8c-.4.2-.9.2-1.3,0"/>
  <path class="st0" d="M.3,29.2c-.1,0-.2-.2-.2-.3"/>
  <path class="st0" d="M91.6,86.5c-.4.2-.9.2-1.3,0"/>
  <path class="st0" d="M90.4,107.2c.4.2.9.2,1.3,0"/>
  <path class="st0" d="M151.4,57.6c.1,0,.2.2.2.3"/>
  <path class="st0" d="M151.3,79c.2,0,.3-.2.3-.4"/>
  <path class="st0" d="M60.1.2c.4-.2.9-.2,1.3,0"/>
  <path class="st0" d="M41.3,30.4l12.4,7.9"/>
  <path class="st0" d="M90,40l-40.5,19.2"/>
  <path class="st0" d="M120.1,59.1l-40.5,19.2"/>
  <path class="st0" d="M120.1,41.3c.4-.2.9-.2,1.3,0"/>
  <path class="st0" d="M120.1,59.1c.4-.2.9-.2,1.3,0v-17.8l-2.2-1.4"/>
  <path class="st0" d="M119.2,40c.1,0,.2.2.2.3"/>
  <path class="st0" d="M90,22.2c.4-.2.9-.2,1.3,0"/>
  <path class="st0" d="M91.3,39.8v-17.5l-2.2-1.4"/>
  <path class="st0" d="M89.1,20.8c.1,0,.2.2.2.3"/>
  <path class="st0" d="M42.4,12c-.1,0-.2-.2-.2-.3"/>
  <path class="st0" d="M40,12.5c.4-.2.9-.2,1.3,0"/>
  <path class="st0" d="M22.5,21.5c-.1,0-.2-.2-.2-.3"/>
  <path class="st0" d="M20,22c.4-.2.9-.2,1.3,0"/>
  <path class="st0" d="M60,1.4L2.6,28.6"/>
  <path class="st0" d="M121.3,59.2l10.9,7"/>
  <path class="st0" d="M149.2,57.5L61.2,1.5"/>
  <path class="st0" d="M91.3,40.1c-.4-.2-.9-.2-1.3,0"/>
  <path class="st0" d="M61.2,20.9c-.4-.2-.9-.2-1.3,0"/>
  <path class="st0" d="M60,20.9l-2,1"/>
  <path class="st0" d="M.4,28.5L60.1.2"/>
  <path class="st0" d="M.3,50l90,57.3"/>
  <path class="st0" d="M151.3,79l-59.7,28.3"/>
  <path class="st0" d="M151.4,57.6L61.4.3"/>
  <path class="st0" d="M2.5,29.3c-.1,0-.2-.2-.2-.3"/>
  <path class="st0" d="M60,1.4c.4-.2.9-.2,1.3,0"/>
  <path class="st0" d="M149.2,57.5c.1,0,.2.2.2.3"/>
  <path class="st0" d="M91.8,85.3c-.4.2-.9.2-1.3,0"/>
  <path class="st0" d="M69.4,30.6c0,.2-.1.3-.3.4"/>
  <path class="st0" d="M89.3,21.2c0,.2-.1.3-.3.4"/>
  <path class="st0" d="M49.4,40.1c0,.2-.1.3-.3.4"/>
  <path class="st0" d="M22.3,21.1c0-.2.1-.3.3-.4"/>
  <path class="st0" d="M42.2,11.7c0-.2.1-.3.3-.4"/>
  <path class="st0" d="M119.4,40.3c0,.2-.1.3-.3.4"/>
  <path class="st0" d="M2.3,29c0-.2.1-.3.3-.4"/>
  <path class="st0" d="M149.4,57.8c0,.2-.1.3-.3.4"/>
  <path class="st0" d="M.1,49.6v-20.7"/>
  <path class="st0" d="M.1,49.6c0,.1,0,.2.2.3"/>
  <path class="st0" d="M.1,28.9c0-.2.1-.3.3-.4"/>
  <path class="st0" d="M151.6,57.9v20.7"/>
  <path class="st0" d="M151.6,57.9c0,.2-.1.3-.3.4"/>
  <path class="st0" d="M19.5,40.1l.6-.3"/>
  <path class="st0" d="M38,31.3l2-1"/>
  <path class="st0" d="M103.7,47.9l-12.4-7.9"/>
  <path class="st0" d="M33.7,47.7l-12.4-7.9"/>
  <path class="st0" d="M49.2,39.8l-27.9-17.7"/>
  <path class="st0" d="M50.4,39.2l-27.9-17.7"/>
  <path class="st0" d="M69.1,30.3l-27.9-17.7"/>
  <path class="st0" d="M70.3,29.7l-27.9-17.7"/>
  <path class="st0" d="M51.6,39.3l17.4-8.3"/>
  <path class="st0" d="M32.4,48.3l16.6-7.9"/>
  <path class="st0" d="M33.5,49l56.6-26.8"/>
  <path class="st0" d="M62.5,67.5l56.6-26.8"/>
  <path class="st0" d="M63.5,68.1l56.6-26.8"/>
  <path class="st0" d="M89,21.5l-17.4,8.3"/>
  <path class="st0" d="M41.3,30.4c-.4-.2-.9-.2-1.3,0V12.5l2.5-1.2"/>
  <path class="st0" d="M22.6,20.8l-2.5,1.2v17.8"/>
  <path class="st0" d="M73.6,28.8l-12.4-7.9"/>
  <path class="st0" d="M90.5,85.3L2.5,29.3"/>
  <path class="st0" d="M21.3,39.8c-.4-.2-.9-.2-1.3,0"/>
  <path class="st0" d="M90.4,86.5L.3,29.2"/>
  <path class="st0" d="M91.6,86.5l59.7-28.3"/>
  <path class="st0" d="M149.1,58.2l-57.3,27.2"/>
  <path class="st0" d="M51.6,39.3c-.4.2-.9.2-1.3,0"/>
  <path class="st0" d="M69.1,30.3c.1,0,.2.2.2.3"/>
</svg>