<?xml version="1.0" encoding="UTF-8"?>
<svg id="_レイヤー_1" data-name="レイヤー_1" xmlns="http://www.w3.org/2000/svg" version="1.1" viewBox="0 0 368.5 375">
  <!-- Generator: Adobe Illustrator 29.0.1, SVG Export Plug-In . SVG Version: 2.1.0 Build 192)  -->
  <defs>
    <style>
      .st0 {
        fill: none;
        stroke: #000;
        stroke-linecap: round;
        stroke-linejoin: round;
        stroke-width: .2px;
      }
    </style>
  </defs>
  <circle cx="152.5" cy="334.1" r=".1"/>
  <circle cx="147" cy="330" r=".1"/>
  <circle cx="66.6" cy="278.8" r=".1"/>
  <path class="st0" d="M360.1,136.8s0,0,0,0h0Z"/>
  <circle cx="215.6" cy="205.2" r=".1"/>
  <circle cx="1.2" cy="69" r=".1"/>
  <path class="st0" d="M150.9,8.2s0,0,0,0h0Z"/>
  <circle cx="10.5" cy="74.8" r=".1"/>
  <path class="st0" d="M147.1,8.1s0,0,0,0h0Z"/>
  <circle cx="147.1" cy="8.1" r=".1"/>
  <circle cx="10.8" cy="72.6" r=".1"/>
  <path class="st0" d="M10.8,72.7s0,0,0,0h0Z"/>
  <circle cx="367.3" cy="141.2" r=".1"/>
  <circle cx="145.9" cy=".4" r=".1"/>
  <circle cx="142.5" cy="1.4" r=".1"/>
  <circle cx="9" cy="69.3" r=".1"/>
  <circle cx="145.3" cy="4.7" r=".1"/>
  <circle cx="8.9" cy="73.8" r=".1"/>
  <circle cx="215.6" cy="205.2" r=".1"/>
  <path class="st0" d="M196.1,27.1c.9-.4,1.9-.4,2.8.1,1.1.8,2.2,1.5,3.4,2.3,1.2.7,2.3,1.4,3.5,2.2h0c-.8-.4-1.8-.4-2.6,0l-2.5-1.6,5,1.4c.2,0,.4.1.6.3l19.3,12.3c-.2-.1-.4-.2-.6-.3l-5-1.4,6,2c-.1-.1-.3-.3-.4-.4l-2.4.4c.6-.3,1.3-.4,2-.3,3.1,1,6,2.8,8.2,5.2l.6,2c0-.7-.2-1.4-.6-1.9-.8-.9-2.2-1.2-3.2-.5"/>
  <path class="st0" d="M25.8,254.9c0-51.9,0-103.9,0-156.1l-3.2-2v156.1"/>
  <path class="st0" d="M52.4,271.9V115.8l-2.8-1.8c0,52.2,0,104.2,0,156"/>
  <path class="st0" d="M112.6,180.1l.4,1.7c-.2.8-1,1.3-1.8,1.1,0,0-26.8-17.1-26.8-17.1-.2-.2-.4-.5-.3-.7v-22.8c0-1.7,1-4,2.5-5.4,1.5-1.4,3.4-1.9,4.5-1.1l25.8,16.4-.7.4c-3,.9-5.1,3.7-5.2,6.8v22.8c0,.3.1.6.3.7"/>
  <path class="st0" d="M119.6,184.6"/>
  <path class="st0" d="M112.6,163.1v17c0,1,.4,2,1.2,2.6,2.4,1.5,4.7,3,7.1,4.5"/>
  <path class="st0" d="M84,144.9l-5.5-3.5"/>
  <path class="st0" d="M93.7,137.5v-4.5"/>
  <path class="st0" d="M78.4,158.4v-21.5c.1-2.7,1.7-5.2,4.1-6.5l4.1-1.9L2.6,75.1c-1.4-.7-2.3-2.1-2.4-3.6,0-.9.4-1.7,1-2.4l.2-.2c0,0,.2-.2.3-.3.1-.1.3-.3.5-.4.3-.3.7-.5,1.1-.7,0,0,0,0,.1,0,0,0,.1,0,.2,0,0,0,.1,0,.2,0L142.4,1.5h.1c0,0,.1-.1.2-.1.5-.2,1-.4,1.5-.5.3,0,.5-.1.8-.2.2,0,.5-.1.7-.2h.2c3.6-.7,7.4-.1,10.6,1.6,0,0,209.3,133.1,209.3,133.1,1.4.7,2.3,2.1,2.4,3.6v9h0c-.3,1.9-1.6,3.6-3.4,4.2,0,0-138.8,65.8-138.8,65.8-4.6,2-9.8,1.8-14.2-.6,0,0-84.1-53.5-84.1-53.5v-9l-4.1,1.9c-2.4,1.3-3.9,3.7-4.1,6.5v21.5c0,1,.4,2,1.2,2.6,2.3.6,4.6,1,7,1.3l.9-.4c0-7.9,0-15.9,0-23.8l-.9-.6-4.9,2.3-3.3,1.6-6.4-4.1s-.7-.4-.7-.4v-4.5c0-.1,0-.2,0-.3,0,0,0,0,0,0,0,0,0-.1,0-.2,0,0,0,0,0,0,0,0,0-.1,0-.2,0,0,0-.1,0-.2,0,0,0,0,0,0,0,0,0-.1,0-.2,0,0,0,0,0-.1,0,0,0,0,0,0,0,0,0-.1,0-.2,0,0,0,0,0-.1,0,0,0,0,0,0,0,0,0,0,0,0,0,0,0,0,0,0,0,0,0,0,0,0,0,0,0,0,0,0,0,0,0,0,0,0,0,0,0,0,0,0v-.3c.8-1.8,2.1-3.3,3.7-4.2l4.1-1.9-27.1-17.2-4.1,1.9c-.4.2-.7.4-1.1.7"/>
  <path class="st0" d="M78.4,158.4c0,1,.4,2,1.2,2.6,1.4.9,2.9,1.8,4.3,2.8v-1.9"/>
  <path class="st0" d="M187.4,201.6c0,52.1,0,104.1,0,156.1l-3.3-2.1c0-52.2,0-104.2,0-156l-26.9-17.1c-.4,52-.4,104.1,0,156.1v-156.1l2.7,1.7v156.1s-2.7-1.7-2.7-1.7l-4.8-4.5h0c-.2-.3-.5-.5-.7-.7-.5-.4-1-.8-1.5-1.2-.8-.6-1.6-1.2-2.5-1.8l-.4-.2c-.1,0-.2-.1-.3-.2h-.2c-4.1-2.6-8.4-4.7-12.9-6.4l-1.1-.6-2.6-1.7-.7-.6c-.2-.2-.4-.4-.7-.7-1.8-1.8-3.7-3.5-5.7-5.1-.9-.6-1.7-1.3-2.6-1.9-.8-.5-1.7-1.1-2.6-1.6l-.8-.5c-.3-.2-.6-.3-1-.5-.8-.4-1.6-.8-2.4-1.2-.9-.4-1.8-.8-2.7-1.2-1.8-.7-3.6-1.5-5.2-2.4v-126.3l-2.6-1.7v126.3s2.6,1.7,2.6,1.7l-2.6-1.7-2-2-.7-.7-.7-.6-.7-.6-.7-.6c-.7-.6-1.5-1.2-2.3-1.8,0,0,0,0-.1-.1-.8-.6-1.5-1.1-2.3-1.6l-.9-.6c-1.9-1.1-3.8-2.2-5.8-3.1-.7-.3-1.4-.6-2.1-1-1.4-.6-2.8-1.2-4.2-1.8l-1.2-.5-2.6-1.7v-156.1l2.6,1.9v-.3h.1c0,0-77.1-49-77.1-49-1.4-.7-2.3-2.1-2.4-3.6v-9l.7,11v9.7s0,0,0,0c0,18.9,0,37.7,0,56.6,0,29.6,0,59.3,0,88.9v-.7c-.1,0,0,.7,0,.7.1.2.3.4.5.6,2.3,1.6,4.7,2.9,7.2,3.9,2.2,1.2,4.4,2.5,6.4,4,.2.2.4.3.7.5.6.4,1.1.9,1.7,1.3,1.8,1.6,3.5,3.2,5.2,4.9l3.3,2.1c9,3.1,17.2,8.3,23.8,15.1l2.9,1.8s1,.5,1,.5c4.5,1.7,8.9,3.9,13,6.4h.1c0,.1,0,.2.1.2,0,0,.1,0,.2.1.1,0,.3.2.4.3.4.2.7.5,1.1.7,2.7,2,5.3,4.3,7.6,6.7l.9.6,2.6,1.7v-128.2"/>
  <path class="st0" d="M210.7,216.4c0,51.7,0,104.3,0,156,.6.4,1.2.8,1.8,1.1,1.7,1,3.6,1.4,5.6,1.2v-155.7"/>
  <path class="st0" d="M127.8,154.7l84.1,53.5c3.2,1.8,6.9,2.3,10.5,1.7,0,0,.3,0,.3,0,0,0,0,0,0,0,.1,0,.3,0,.4,0s.3,0,.4,0c.3,0,.6-.1.8-.2.5-.2,1-.4,1.5-.6,0,0,.1,0,.2,0l138.8-65.8s0,0,.1,0c.8-.4,1.6-.9,2.2-1.6,0,0,.1-.1.2-.2.6-.6.9-1.5.9-2.4l-9.8,2.6c.2-.5,0-1.1-.5-1.4,0,0,0,0,0,0,0,0-207.2-131.8-207.2-131.8h0c-1.2-.6-2.5-.7-3.7-.2h0S10.8,72.6,10.8,72.6h0c-.6.1-1,.7-.9,1.3,0,.3.3.6.6.8l-2-1.2c-.9-.6-1.4-1.4-1.3-2.2.1-.8.8-1.5,1.9-2h0S145.3,4.7,145.3,4.7h0c2.5-1.1,5.3-1,7.6.3h0s207.2,131.8,207.2,131.8h0c1.1.5,1.5,1.7,1.1,2.8-.2.5-.6.9-1.2,1.1-.2.1-.3.2-.5.3,0,0-136.4,64.6-136.4,64.6-2.4,1-5.2,1-7.5-.2h-.1c0,0-207.1-131.8-207.1-131.8l2,1.3h0s205.4,130.6,205.4,130.6"/>
  <path class="st0" d="M129.5,164.8l.7.5v156.1s2.6,1.7,2.6,1.7v-156.1"/>
  <path class="st0" d="M129.5,320.7"/>
  <path class="st0" d="M364.2,152.3v155.5l3.6-3.4v-154.8s0,0,0,0c0,51.7,0,103.4,0,155.2h0c-.2,1.2-1,2.1-2.1,2.5-.2,0-.4.2-.6.3-.2,0-.5.2-.8.3-6.6,1.8-12.9,4.6-18.7,8.3-.9.6-1.7,1.2-2.6,1.7-.8.6-1.7,1.2-2.5,1.8l-3,1.4c-2.3.9-4.6,1.6-7,2.3-.7.2-1.4.5-2.1.7-.4.2-.9.3-1.3.5-6.3,2.3-12.3,5.6-17.6,9.8,0,0-4.2,2-4.2,2-9.8,2.4-19.1,6.7-27.1,12.8,0,0-4.1,1.9-4.1,1.9,0-52.1,0-104.1,0-156.2l4.4-2.1c-.1,51.5-.2,103.6-.3,156.3l-4.1,1.9c-9.8,2.4-19.1,6.7-27.1,12.9l-4.1,2c0-52.2,0-104.2,0-156.1l4.1-2c0,52,0,104.1,0,156.2l-4.1,2c-6.6,1.7-13,4.2-19,7.4,0,0-.8.4-.8.4-1.6.6-3.3,1-5,1l-7.4-2.3c-6.4-6.7-14.4-11.8-23.2-14.8l-3.3-2.1c-3-3.1-6.3-5.8-9.8-8.3-.7-.4-1.3-.8-2-1.2l-.9-.5c-.3-.2-.6-.3-1-.5l-1-.5c-.4-.2-.7-.4-1.1-.5-1.3-.6-2.7-1.3-4.1-1.9-1.1-.5-2.2-.9-3.3-1.4l-1-.5"/>
  <path class="st0" d="M311.9,99.3c-.2-.4-.5-.7-.8-1-.2-.1-.4-.2-.6-.3l-5-1.4-4.6-2.9c.6-.3,1.3-.4,2-.3,2.9,1,5.5,2.5,7.7,4.6l.5.2,19.3,12.3c-.2-.1-.4-.2-.6-.3l-5-1.4,6.3,2.3c-.2-.3-.4-.5-.7-.7l-2.4.4c.9-.4,1.9-.4,2.8,0,1.1.7,2.3,1.6,3.4,2.3,1.2.7,2.3,1.4,3.5,2.1h-2.6c.8-.4,1.8-.4,2.6,0,.8.5,1.2,1.4,1.1,2.4"/>
  <path class="st0" d="M305,180.4c0,51.4.2,103.4.3,156l4.2-2c0-52.3.1-104.4.2-156.2"/>
  <path class="st0" d="M337.4,321.1v-156.1l3-1.4c0,53.2,0,105.4,0,156.1"/>
</svg>